<svg width="25" height="24" viewBox="0 0 25 24" fill="none" xmlns="http://www.w3.org/2000/svg">
<path fill-rule="evenodd" clip-rule="evenodd" d="M24.9925 22.6754C24.9925 23.4069 24.3995 24 23.668 24V23.9999L17.5522 23.9999L2.31724 23.9999C1.58554 23.9999 0.992676 23.4069 0.992676 22.6753V1.32457C0.992676 0.592952 1.58554 0 2.31724 0H23.668C24.3994 0 24.9925 0.592862 24.9925 1.32457V22.6754ZM17.5522 14.7059V23.9998H13.8117V14.7059H10.6841V11.0838H13.8117V8.41261C13.8117 5.3127 15.7049 3.62476 18.4703 3.62476C19.7948 3.62476 20.9334 3.7234 21.2651 3.76746V7.00702L19.3471 7.00792C17.8433 7.00792 17.5521 7.72254 17.5521 8.77122V11.0838H21.1388L20.6718 14.7059H17.5522Z" fill="#586069"/>
</svg>
