<svg height="590" viewBox="0 0 1248 590" width="1248" xmlns="http://www.w3.org/2000/svg" xmlns:xlink="http://www.w3.org/1999/xlink"><linearGradient id="a"><stop offset="0" stop-color="#56d364"/><stop offset="1" stop-color="#79c0ff"/></linearGradient><linearGradient id="b" x1=".001%" x2="28226.628%" xlink:href="#a" y1="-4291.344%" y2="-1074.6%"/><linearGradient id="c" x1="-2000.013%" x2="26226.807%" xlink:href="#a" y1="-4291.344%" y2="-1074.6%"/><linearGradient id="d" x1="-5999.704%" x2="22225.574%" xlink:href="#a" y1="-4290.869%" y2="-1074.477%"/><linearGradient id="e" x1="-11999.431%" x2="16225.847%" xlink:href="#a" y1="-4290.869%" y2="-1074.477%"/><linearGradient id="f" x1="-13999.321%" x2="14225.956%" xlink:href="#a" y1="-4290.869%" y2="-1074.477%"/><linearGradient id="g" x1="-15996.594%" x2="12224.056%" xlink:href="#a" y1="-4291.344%" y2="-1074.6%"/><linearGradient id="h" x1="-17999.13%" x2="10226.147%" xlink:href="#a" y1="-4290.869%" y2="-1074.477%"/><linearGradient id="i" x1="-21998.939%" x2="6226.339%" xlink:href="#a" y1="-4290.869%" y2="-1074.477%"/><linearGradient id="j" x1="-23994.9%" x2="4225.75%" xlink:href="#a" y1="-4291.344%" y2="-1074.6%"/><linearGradient id="k" x1="-25998.748%" x2="2226.53%" xlink:href="#a" y1="-4290.869%" y2="-1074.477%"/><linearGradient id="l" x1="-33909.04800000001%" x2="-5757.812%" xlink:href="#a" y1="-4291.344%" y2="-1074.6%"/><linearGradient id="m" x1="-31998.502%" x2="-3773.224%" xlink:href="#a" y1="-6291.019%" y2="-3074.451%"/><linearGradient id="n" x1="-33905.337%" x2="-5757.177%" xlink:href="#a" y1="-6291.019%" y2="-3074.451%"/><linearGradient id="o" x1="-3999.813%" x2="24225.464%" xlink:href="#a" y1="-8290.91%" y2="-5074.342%"/><linearGradient id="p" x1="-31998.502%" x2="-3773.224%" xlink:href="#a" y1="-8290.91%" y2="-5074.342%"/><linearGradient id="q" x1="-3999.813%" x2="24225.464%" xlink:href="#a" y1="-10290.828%" y2="-7074.26%"/><linearGradient id="r" x1="-33905.337%" x2="-5757.177%" xlink:href="#a" y1="-10290.828%" y2="-7074.26%"/><linearGradient id="s" x1="-1999.788%" x2="26223.947%" xlink:href="#a" y1="-12290.719%" y2="-9074.15%"/><linearGradient id="t" x1="-3999.813%" x2="24225.464%" xlink:href="#a" y1="-12290.719%" y2="-9074.15%"/><linearGradient id="u" x1="-33905.337%" x2="-5757.177%" xlink:href="#a" y1="-12290.719%" y2="-9074.15%"/><linearGradient id="v" x1=".006%" x2="28223.934%" xlink:href="#a" y1="-14290.637%" y2="-11074.068%"/><linearGradient id="w" x1="-3999.813%" x2="24225.464%" xlink:href="#a" y1="-14290.637%" y2="-11074.068%"/><linearGradient id="x" x1="-31998.502%" x2="-3773.224%" xlink:href="#a" y1="-14290.637%" y2="-11074.068%"/><linearGradient id="y" x1="-33905.337%" x2="-5757.177%" xlink:href="#a" y1="-14290.637%" y2="-11074.068%"/><linearGradient id="z" x1="-3999.813%" x2="24225.464%" xlink:href="#a" y1="-16290.527%" y2="-13073.959%"/><linearGradient id="A" x1="-29998.502%" x2="-1773.224%" xlink:href="#a" y1="-16290.527%" y2="-13073.959%"/><linearGradient id="B" x1="-31998.502%" x2="-3773.224%" xlink:href="#a" y1="-16290.527%" y2="-13073.959%"/><linearGradient id="C" x1=".001%" x2="28226.628%" xlink:href="#a" y1="-18287.174%" y2="-15071.177%"/><linearGradient id="D" x1="-33923.899%" x2="-5760.352%" xlink:href="#a" y1="-18295.444%" y2="-15077.997%"/><linearGradient id="E" x1="-7993.146%" x2="20232.131%" xlink:href="#a" y1="-14290.637%" y2="-11074.068%"/><linearGradient id="F" x1="-25998.748%" x2="2226.53%" xlink:href="#a" y1="-14290.637%" y2="-11074.068%"/><linearGradient id="G" x1="-27998.775%" x2="226.503%" xlink:href="#a" y1="-14290.637%" y2="-11074.068%"/><g fill="none"><g fill="#21262d"><path d="m3.659825 0h-3.659825v3.659828h3.659825z"/><path d="m76.856295 0h-3.6598v3.659828h3.6598z"/><path d="m150.053195 0h-3.66v3.659828h3.66z"/><path d="m223.249195 0h-3.66v3.659828h3.66z"/><path d="m296.446195 0h-3.66v3.659828h3.66z"/><path d="m369.642195 0h-3.66v3.659828h3.66z"/><path d="m442.839195 0h-3.66v3.659828h3.66z"/><path d="m516.035195 0h-3.66v3.659828h3.66z"/><path d="m589.231195 0h-3.659v3.659828h3.659z"/><path d="m662.428195 0h-3.66v3.659828h3.66z"/><path d="m735.624195 0h-3.659v3.659828h3.659z"/><path d="m808.821195 0h-3.66v3.659828h3.66z"/><path d="m882.017195 0h-3.659v3.659828h3.659z"/><path d="m955.214195 0h-3.66v3.659828h3.66z"/><path d="m1028.4152 0h-3.66v3.659828h3.66z"/><path d="m1101.60519 0h-3.66v3.659828h3.66z"/><path d="m1174.8052 0h-3.66v3.659828h3.66z"/><path d="m1247.99519 0h-3.65v3.659828h3.65z"/><path d="m3.659825 73.196468h-3.659825v3.6598h3.659825z"/><path d="m76.856295 73.196468h-3.6598v3.6598h3.6598z"/><path d="m150.053195 73.196468h-3.66v3.6598h3.66z"/><path d="m223.249195 73.196468h-3.66v3.6598h3.66z"/><path d="m296.446195 73.196468h-3.66v3.6598h3.66z"/><path d="m369.642195 73.196468h-3.66v3.6598h3.66z"/><path d="m442.839195 73.196468h-3.66v3.6598h3.66z"/><path d="m516.035195 73.196468h-3.66v3.6598h3.66z"/><path d="m589.231195 73.196468h-3.659v3.6598h3.659z"/><path d="m662.428195 73.196468h-3.66v3.6598h3.66z"/><path d="m735.624195 73.196468h-3.659v3.6598h3.659z"/><path d="m808.821195 73.196468h-3.66v3.6598h3.66z"/><path d="m882.017195 73.196468h-3.659v3.6598h3.659z"/><path d="m955.214195 73.196468h-3.66v3.6598h3.66z"/><path d="m1028.4152 73.196468h-3.66v3.6598h3.66z"/><path d="m1101.60519 73.196468h-3.66v3.6598h3.66z"/><path d="m1174.8052 73.196468h-3.66v3.6598h3.66z"/><path d="m1247.99519 73.196468h-3.65v3.6598h3.65z"/><path d="m3.659825 146.393268h-3.659825v3.66h3.659825z"/><path d="m76.856295 146.393268h-3.6598v3.66h3.6598z"/><path d="m150.053195 146.393268h-3.66v3.66h3.66z"/><path d="m223.249195 146.393268h-3.66v3.66h3.66z"/><path d="m296.446195 146.393268h-3.66v3.66h3.66z"/><path d="m369.642195 146.393268h-3.66v3.66h3.66z"/><path d="m442.839195 146.393268h-3.66v3.66h3.66z"/><path d="m516.035195 146.393268h-3.66v3.66h3.66z"/><path d="m589.231195 146.393268h-3.659v3.66h3.659z"/><path d="m662.428195 146.393268h-3.66v3.66h3.66z"/><path d="m735.624195 146.393268h-3.659v3.66h3.659z"/><path d="m808.821195 146.393268h-3.66v3.66h3.66z"/><path d="m882.017195 146.393268h-3.659v3.66h3.659z"/><path d="m955.214195 146.393268h-3.66v3.66h3.66z"/><path d="m1028.4152 146.393268h-3.66v3.66h3.66z"/><path d="m1101.60519 146.393268h-3.66v3.66h3.66z"/><path d="m1174.8052 146.393268h-3.66v3.66h3.66z"/><path d="m1247.99519 146.393268h-3.65v3.66h3.65z"/><path d="m3.659825 219.589268h-3.659825v3.66h3.659825z"/><path d="m76.856295 219.589268h-3.6598v3.66h3.6598z"/><path d="m150.053195 219.589268h-3.66v3.66h3.66z"/><path d="m223.249195 219.589268h-3.66v3.66h3.66z"/><path d="m296.446195 219.589268h-3.66v3.66h3.66z"/><path d="m369.642195 219.589268h-3.66v3.66h3.66z"/><path d="m442.839195 219.589268h-3.66v3.66h3.66z"/><path d="m516.035195 219.589268h-3.66v3.66h3.66z"/><path d="m589.231195 219.589268h-3.659v3.66h3.659z"/><path d="m662.428195 219.589268h-3.66v3.66h3.66z"/><path d="m735.624195 219.589268h-3.659v3.66h3.659z"/><path d="m808.821195 219.589268h-3.66v3.66h3.66z"/><path d="m882.017195 219.589268h-3.659v3.66h3.659z"/><path d="m955.214195 219.589268h-3.66v3.66h3.66z"/><path d="m1028.4152 219.589268h-3.66v3.66h3.66z"/><path d="m1101.60519 219.589268h-3.66v3.66h3.66z"/><path d="m1174.8052 219.589268h-3.66v3.66h3.66z"/><path d="m1247.99519 219.589268h-3.65v3.66h3.65z"/><path d="m3.659825 292.786268h-3.659825v3.659h3.659825z"/><path d="m76.856295 292.786268h-3.6598v3.659h3.6598z"/><path d="m150.053195 292.786268h-3.66v3.659h3.66z"/><path d="m223.249195 292.786268h-3.66v3.659h3.66z"/><path d="m296.446195 292.786268h-3.66v3.659h3.66z"/><path d="m369.642195 292.786268h-3.66v3.659h3.66z"/><path d="m442.839195 292.786268h-3.66v3.659h3.66z"/><path d="m516.035195 292.786268h-3.66v3.659h3.66z"/><path d="m589.231195 292.786268h-3.659v3.659h3.659z"/><path d="m662.428195 292.786268h-3.66v3.659h3.66z"/><path d="m735.624195 292.786268h-3.659v3.659h3.659z"/><path d="m808.821195 292.786268h-3.66v3.659h3.66z"/><path d="m882.017195 292.786268h-3.659v3.659h3.659z"/><path d="m955.214195 292.786268h-3.66v3.659h3.66z"/><path d="m1028.4152 292.786268h-3.66v3.659h3.66z"/><path d="m1101.60519 292.786268h-3.66v3.659h3.66z"/><path d="m1174.8052 292.786268h-3.66v3.659h3.66z"/><path d="m1247.99519 292.786268h-3.65v3.659h3.65z"/><path d="m3.659825 365.982268h-3.659825v3.66h3.659825z"/><path d="m76.856295 365.982268h-3.6598v3.66h3.6598z"/><path d="m150.053195 365.982268h-3.66v3.66h3.66z"/><path d="m223.249195 365.982268h-3.66v3.66h3.66z"/><path d="m296.446195 365.982268h-3.66v3.66h3.66z"/><path d="m369.642195 365.982268h-3.66v3.66h3.66z"/><path d="m442.839195 365.982268h-3.66v3.66h3.66z"/><path d="m516.035195 365.982268h-3.66v3.66h3.66z"/><path d="m589.231195 365.982268h-3.659v3.66h3.659z"/><path d="m662.428195 365.982268h-3.66v3.66h3.66z"/><path d="m735.624195 365.982268h-3.659v3.66h3.659z"/><path d="m808.821195 365.982268h-3.66v3.66h3.66z"/><path d="m882.017195 365.982268h-3.659v3.66h3.659z"/><path d="m955.214195 365.982268h-3.66v3.66h3.66z"/><path d="m1028.4152 365.982268h-3.66v3.66h3.66z"/><path d="m1101.60519 365.982268h-3.66v3.66h3.66z"/><path d="m1174.8052 365.982268h-3.66v3.66h3.66z"/><path d="m1247.99519 365.982268h-3.65v3.66h3.65z"/><path d="m3.659825 439.179268h-3.659825v3.659h3.659825z"/><path d="m76.856295 439.179268h-3.6598v3.659h3.6598z"/><path d="m150.053195 439.179268h-3.66v3.659h3.66z"/><path d="m223.249195 439.179268h-3.66v3.659h3.66z"/><path d="m296.446195 439.179268h-3.66v3.659h3.66z"/><path d="m369.642195 439.179268h-3.66v3.659h3.66z"/><path d="m442.839195 439.179268h-3.66v3.659h3.66z"/><path d="m516.035195 439.179268h-3.66v3.659h3.66z"/><path d="m589.231195 439.179268h-3.659v3.659h3.659z"/><path d="m662.428195 439.179268h-3.66v3.659h3.66z"/><path d="m735.624195 439.179268h-3.659v3.659h3.659z"/><path d="m808.821195 439.179268h-3.66v3.659h3.66z"/><path d="m882.017195 439.179268h-3.659v3.659h3.659z"/><path d="m955.214195 439.179268h-3.66v3.659h3.66z"/><path d="m1028.4152 439.179268h-3.66v3.659h3.66z"/><path d="m1101.60519 439.179268h-3.66v3.659h3.66z"/><path d="m1174.8052 439.179268h-3.66v3.659h3.66z"/><path d="m1247.99519 439.179268h-3.65v3.659h3.65z"/><path d="m3.659825 512.375268h-3.659825v3.66h3.659825z"/><path d="m76.856295 512.375268h-3.6598v3.66h3.6598z"/><path d="m150.053195 512.375268h-3.66v3.66h3.66z"/><path d="m223.249195 512.375268h-3.66v3.66h3.66z"/><path d="m296.446195 512.375268h-3.66v3.66h3.66z"/><path d="m369.642195 512.375268h-3.66v3.66h3.66z"/><path d="m442.839195 512.375268h-3.66v3.66h3.66z"/><path d="m516.035195 512.375268h-3.66v3.66h3.66z"/><path d="m589.231195 512.375268h-3.659v3.66h3.659z"/><path d="m662.428195 512.375268h-3.66v3.66h3.66z"/><path d="m735.624195 512.375268h-3.659v3.66h3.659z"/><path d="m808.821195 512.375268h-3.66v3.66h3.66z"/><path d="m882.017195 512.375268h-3.659v3.66h3.659z"/><path d="m955.214195 512.375268h-3.66v3.66h3.66z"/><path d="m1028.4152 512.375268h-3.66v3.66h3.66z"/><path d="m1101.60519 512.375268h-3.66v3.66h3.66z"/><path d="m1174.8052 512.375268h-3.66v3.66h3.66z"/><path d="m1247.99519 512.375268h-3.65v3.66h3.65z"/><path d="m3.659825 585.572268h-3.659825v3.659h3.659825z"/><path d="m76.856295 585.572268h-3.6598v3.659h3.6598z"/><path d="m150.053195 585.572268h-3.66v3.659h3.66z"/><path d="m223.249195 585.572268h-3.66v3.659h3.66z"/><path d="m296.446195 585.572268h-3.66v3.659h3.66z"/><path d="m369.642195 585.572268h-3.66v3.659h3.66z"/><path d="m442.839195 585.572268h-3.66v3.659h3.66z"/><path d="m516.035195 585.572268h-3.66v3.659h3.66z"/><path d="m589.231195 585.572268h-3.659v3.659h3.659z"/><path d="m662.428195 585.572268h-3.66v3.659h3.66z"/><path d="m735.624195 585.572268h-3.659v3.659h3.659z"/><path d="m808.821195 585.572268h-3.66v3.659h3.66z"/><path d="m882.017195 585.572268h-3.659v3.659h3.659z"/><path d="m955.214195 585.572268h-3.66v3.659h3.66z"/><path d="m1028.4152 585.572268h-3.66v3.659h3.66z"/><path d="m1101.60519 585.572268h-3.66v3.659h3.66z"/><path d="m1174.8052 585.572268h-3.66v3.659h3.66z"/><path d="m1247.99519 585.572268h-3.65v3.659h3.65z"/></g><g opacity=".4" transform="translate(0 73.197)"><path d="m3.659825 0h-3.659825v3.6598h3.659825z" fill="url(#b)"/><path d="m76.856295 0h-3.6598v3.6598h3.6598z" fill="url(#c)"/><path d="m223.249195 0h-3.66v3.6598h3.66z" fill="url(#d)"/><path d="m442.839195 0h-3.66v3.6598h3.66z" fill="url(#e)"/><path d="m516.035195 0h-3.66v3.6598h3.66z" fill="url(#f)"/><path d="m589.231195 0h-3.659v3.6598h3.659z" fill="url(#g)"/><path d="m662.428195 0h-3.66v3.6598h3.66z" fill="url(#h)"/><path d="m808.821195 0h-3.66v3.6598h3.66z" fill="url(#i)"/><path d="m882.017195 0h-3.659v3.6598h3.659z" fill="url(#j)"/><path d="m955.214195 0h-3.66v3.6598h3.66z" fill="url(#k)"/><path d="m1247.99519 0h-3.65v3.6598h3.65z" fill="url(#l)"/><path d="m1174.8052 73.1967h-3.66v3.66h3.66z" fill="url(#m)"/><path d="m1247.99519 73.1967h-3.65v3.66h3.65z" fill="url(#n)"/><path d="m150.053195 146.3927h-3.66v3.66h3.66z" fill="url(#o)"/><path d="m1174.8052 146.3927h-3.66v3.66h3.66z" fill="url(#p)"/><path d="m150.053195 219.5897h-3.66v3.66h3.66z" fill="url(#q)"/><path d="m1247.99519 219.5897h-3.65v3.66h3.65z" fill="url(#r)"/><path d="m76.856295 292.7857h-3.6598v3.66h3.6598z" fill="url(#s)"/><path d="m150.053195 292.7857h-3.66v3.66h3.66z" fill="url(#t)"/><path d="m1247.99519 292.7857h-3.65v3.66h3.65z" fill="url(#u)"/><path d="m3.659825 365.9827h-3.659825v3.66h3.659825z" fill="url(#v)"/><path d="m150.053195 365.9827h-3.66v3.66h3.66z" fill="url(#w)"/><path d="m1174.8052 365.9827h-3.66v3.66h3.66z" fill="url(#x)"/><path d="m1247.99519 365.9827h-3.65v3.66h3.65z" fill="url(#y)"/><path d="m150.053195 439.1787h-3.66v3.66h3.66z" fill="url(#z)"/><path d="m1101.60519 439.1787h-3.66v3.66h3.66z" fill="url(#A)"/><path d="m1174.8052 439.1787h-3.66v3.66h3.66z" fill="url(#B)"/><path d="m3.659825 512.3757h-3.659825v3.659h3.659825z" fill="url(#C)"/><path d="m1247.99519 512.3757h-3.65v3.659h3.65z" fill="url(#D)"/><path d="m296.209195 365.9827h-3.66v3.66h3.66z" fill="url(#E)"/><path d="m955.214195 365.9827h-3.66v3.66h3.66z" fill="url(#F)"/><path d="m1028.4152 365.9827h-3.66v3.66h3.66z" fill="url(#G)"/></g></g></svg>