<svg width="1248" height="590" viewBox="0 0 1248 590" fill="none" xmlns="http://www.w3.org/2000/svg">
<path d="M1244.34 590L1248 590L1248 586.34L1244.34 586.34L1244.34 590Z" fill="#21262D"/>
<path d="M1171.14 590L1174.8 590L1174.8 586.34L1171.14 586.34L1171.14 590Z" fill="#21262D"/>
<path d="M1097.95 590L1101.61 590L1101.61 586.34L1097.95 586.34L1097.95 590Z" fill="#21262D"/>
<path d="M1024.75 590L1028.41 590L1028.41 586.34L1024.75 586.34L1024.75 590Z" fill="#21262D"/>
<path d="M951.554 590L955.214 590L955.214 586.34L951.554 586.34L951.554 590Z" fill="#21262D"/>
<path d="M878.358 590L882.018 590L882.018 586.34L878.358 586.34L878.358 590Z" fill="#21262D"/>
<path d="M805.161 590L808.821 590L808.821 586.34L805.161 586.34L805.161 590Z" fill="#21262D"/>
<path d="M731.965 590L735.625 590L735.625 586.34L731.965 586.34L731.965 590Z" fill="#21262D"/>
<path d="M658.768 590L662.428 590L662.428 586.34L658.768 586.34L658.768 590Z" fill="#21262D"/>
<path d="M585.572 590L589.232 590L589.232 586.34L585.572 586.34L585.572 590Z" fill="#21262D"/>
<path d="M512.375 590L516.035 590L516.035 586.34L512.375 586.34L512.375 590Z" fill="#21262D"/>
<path d="M439.179 590L442.839 590L442.839 586.34L439.179 586.34L439.179 590Z" fill="#21262D"/>
<path d="M365.982 590L369.642 590L369.642 586.34L365.982 586.34L365.982 590Z" fill="#21262D"/>
<path d="M292.786 590L296.446 590L296.446 586.34L292.786 586.34L292.786 590Z" fill="#21262D"/>
<path d="M219.589 590L223.249 590L223.249 586.34L219.589 586.34L219.589 590Z" fill="#21262D"/>
<path d="M146.393 590L150.053 590L150.053 586.34L146.393 586.34L146.393 590Z" fill="#21262D"/>
<path d="M73.1964 590L76.8563 590L76.8563 586.34L73.1964 586.34L73.1964 590Z" fill="#21262D"/>
<path d="M0 590L3.65979 590L3.65979 586.34L-3.19952e-07 586.34L0 590Z" fill="#21262D"/>
<path d="M1244.34 516.804L1248 516.804L1248 513.144L1244.34 513.144L1244.34 516.804Z" fill="#21262D"/>
<path d="M1171.14 516.804L1174.8 516.804L1174.8 513.144L1171.14 513.144L1171.14 516.804Z" fill="#21262D"/>
<path d="M1097.95 516.804L1101.61 516.804L1101.61 513.144L1097.95 513.144L1097.95 516.804Z" fill="#21262D"/>
<path d="M1024.75 516.804L1028.41 516.804L1028.41 513.144L1024.75 513.144L1024.75 516.804Z" fill="#21262D"/>
<path d="M951.554 516.804L955.214 516.804L955.214 513.144L951.554 513.144L951.554 516.804Z" fill="#21262D"/>
<path d="M878.358 516.804L882.018 516.804L882.018 513.144L878.358 513.144L878.358 516.804Z" fill="#21262D"/>
<path d="M805.161 516.804L808.821 516.804L808.821 513.144L805.161 513.144L805.161 516.804Z" fill="#21262D"/>
<path d="M731.965 516.804L735.625 516.804L735.625 513.144L731.965 513.144L731.965 516.804Z" fill="#21262D"/>
<path d="M658.768 516.804L662.428 516.804L662.428 513.144L658.768 513.144L658.768 516.804Z" fill="#21262D"/>
<path d="M585.572 516.804L589.232 516.804L589.232 513.144L585.572 513.144L585.572 516.804Z" fill="#21262D"/>
<path d="M512.375 516.804L516.035 516.804L516.035 513.144L512.375 513.144L512.375 516.804Z" fill="#21262D"/>
<path d="M439.179 516.804L442.839 516.804L442.839 513.144L439.179 513.144L439.179 516.804Z" fill="#21262D"/>
<path d="M365.982 516.804L369.642 516.804L369.642 513.144L365.982 513.144L365.982 516.804Z" fill="#21262D"/>
<path d="M292.786 516.804L296.446 516.804L296.446 513.144L292.786 513.144L292.786 516.804Z" fill="#21262D"/>
<path d="M219.589 516.804L223.249 516.804L223.249 513.144L219.589 513.144L219.589 516.804Z" fill="#21262D"/>
<path d="M146.393 516.804L150.053 516.804L150.053 513.144L146.393 513.144L146.393 516.804Z" fill="#21262D"/>
<path d="M73.1964 516.804L76.8563 516.804L76.8563 513.144L73.1964 513.144L73.1964 516.804Z" fill="#21262D"/>
<path d="M-6.39904e-06 516.804L3.65978 516.804L3.65978 513.144L-6.71899e-06 513.144L-6.39904e-06 516.804Z" fill="#21262D"/>
<path d="M1244.34 443.607L1248 443.607L1248 439.947L1244.34 439.947L1244.34 443.607Z" fill="#21262D"/>
<path d="M1171.14 443.607L1174.8 443.607L1174.8 439.947L1171.14 439.947L1171.14 443.607Z" fill="#21262D"/>
<path d="M1097.95 443.607L1101.61 443.607L1101.61 439.947L1097.95 439.947L1097.95 443.607Z" fill="#21262D"/>
<path d="M1024.75 443.607L1028.41 443.607L1028.41 439.947L1024.75 439.947L1024.75 443.607Z" fill="#21262D"/>
<path d="M951.554 443.607L955.214 443.607L955.214 439.947L951.554 439.947L951.554 443.607Z" fill="#21262D"/>
<path d="M878.358 443.607L882.018 443.607L882.018 439.947L878.358 439.947L878.358 443.607Z" fill="#21262D"/>
<path d="M805.161 443.607L808.821 443.607L808.821 439.947L805.161 439.947L805.161 443.607Z" fill="#21262D"/>
<path d="M731.965 443.607L735.625 443.607L735.625 439.947L731.965 439.947L731.965 443.607Z" fill="#21262D"/>
<path d="M658.768 443.607L662.428 443.607L662.428 439.947L658.768 439.947L658.768 443.607Z" fill="#21262D"/>
<path d="M585.572 443.607L589.232 443.607L589.232 439.947L585.572 439.947L585.572 443.607Z" fill="#21262D"/>
<path d="M512.375 443.607L516.035 443.607L516.035 439.947L512.375 439.947L512.375 443.607Z" fill="#21262D"/>
<path d="M439.179 443.607L442.839 443.607L442.839 439.947L439.179 439.947L439.179 443.607Z" fill="#21262D"/>
<path d="M365.982 443.607L369.642 443.607L369.642 439.947L365.982 439.947L365.982 443.607Z" fill="#21262D"/>
<path d="M292.786 443.607L296.446 443.607L296.446 439.947L292.786 439.947L292.786 443.607Z" fill="#21262D"/>
<path d="M219.589 443.607L223.249 443.607L223.249 439.947L219.589 439.947L219.589 443.607Z" fill="#21262D"/>
<path d="M146.393 443.607L150.053 443.607L150.053 439.947L146.393 439.947L146.393 443.607Z" fill="#21262D"/>
<path d="M73.1964 443.607L76.8563 443.607L76.8563 439.947L73.1964 439.947L73.1964 443.607Z" fill="#21262D"/>
<path d="M-1.27981e-05 443.607L3.65978 443.607L3.65978 439.947L-1.3118e-05 439.947L-1.27981e-05 443.607Z" fill="#21262D"/>
<path d="M1244.34 370.411L1248 370.411L1248 366.751L1244.34 366.751L1244.34 370.411Z" fill="#21262D"/>
<path d="M1171.14 370.411L1174.8 370.411L1174.8 366.751L1171.14 366.751L1171.14 370.411Z" fill="#21262D"/>
<path d="M1097.95 370.411L1101.61 370.411L1101.61 366.751L1097.95 366.751L1097.95 370.411Z" fill="#21262D"/>
<path d="M1024.75 370.411L1028.41 370.411L1028.41 366.751L1024.75 366.751L1024.75 370.411Z" fill="#21262D"/>
<path d="M951.554 370.411L955.214 370.411L955.214 366.751L951.554 366.751L951.554 370.411Z" fill="#21262D"/>
<path d="M878.358 370.411L882.018 370.411L882.018 366.751L878.358 366.751L878.358 370.411Z" fill="#21262D"/>
<path d="M805.161 370.411L808.821 370.411L808.821 366.751L805.161 366.751L805.161 370.411Z" fill="#21262D"/>
<path d="M731.965 370.411L735.625 370.411L735.625 366.751L731.965 366.751L731.965 370.411Z" fill="#21262D"/>
<path d="M658.768 370.411L662.428 370.411L662.428 366.751L658.768 366.751L658.768 370.411Z" fill="#21262D"/>
<path d="M585.572 370.411L589.232 370.411L589.232 366.751L585.572 366.751L585.572 370.411Z" fill="#21262D"/>
<path d="M512.375 370.411L516.035 370.411L516.035 366.751L512.375 366.751L512.375 370.411Z" fill="#21262D"/>
<path d="M439.179 370.411L442.839 370.411L442.839 366.751L439.179 366.751L439.179 370.411Z" fill="#21262D"/>
<path d="M365.982 370.411L369.642 370.411L369.642 366.751L365.982 366.751L365.982 370.411Z" fill="#21262D"/>
<path d="M292.786 370.411L296.446 370.411L296.446 366.751L292.786 366.751L292.786 370.411Z" fill="#21262D"/>
<path d="M219.589 370.411L223.249 370.411L223.249 366.751L219.589 366.751L219.589 370.411Z" fill="#21262D"/>
<path d="M146.393 370.411L150.053 370.411L150.053 366.751L146.393 366.751L146.393 370.411Z" fill="#21262D"/>
<path d="M73.1964 370.411L76.8563 370.411L76.8563 366.751L73.1964 366.751L73.1964 370.411Z" fill="#21262D"/>
<path d="M-1.91971e-05 370.411L3.65977 370.411L3.65977 366.751L-1.95171e-05 366.751L-1.91971e-05 370.411Z" fill="#21262D"/>
<path d="M1244.34 297.214L1248 297.214L1248 293.554L1244.34 293.554L1244.34 297.214Z" fill="#21262D"/>
<path d="M1171.14 297.214L1174.8 297.214L1174.8 293.554L1171.14 293.554L1171.14 297.214Z" fill="#21262D"/>
<path d="M1097.95 297.214L1101.61 297.214L1101.61 293.554L1097.95 293.554L1097.95 297.214Z" fill="#21262D"/>
<path d="M1024.75 297.214L1028.41 297.214L1028.41 293.554L1024.75 293.554L1024.75 297.214Z" fill="#21262D"/>
<path d="M951.554 297.214L955.214 297.214L955.214 293.554L951.554 293.554L951.554 297.214Z" fill="#21262D"/>
<path d="M878.358 297.214L882.018 297.214L882.018 293.554L878.358 293.554L878.358 297.214Z" fill="#21262D"/>
<path d="M805.161 297.214L808.821 297.214L808.821 293.554L805.161 293.554L805.161 297.214Z" fill="#21262D"/>
<path d="M731.965 297.214L735.625 297.214L735.625 293.554L731.965 293.554L731.965 297.214Z" fill="#21262D"/>
<path d="M658.768 297.214L662.428 297.214L662.428 293.554L658.768 293.554L658.768 297.214Z" fill="#21262D"/>
<path d="M585.572 297.214L589.232 297.214L589.232 293.554L585.572 293.554L585.572 297.214Z" fill="#21262D"/>
<path d="M512.375 297.214L516.035 297.214L516.035 293.554L512.375 293.554L512.375 297.214Z" fill="#21262D"/>
<path d="M439.179 297.214L442.839 297.214L442.839 293.554L439.179 293.554L439.179 297.214Z" fill="#21262D"/>
<path d="M365.982 297.214L369.642 297.214L369.642 293.554L365.982 293.554L365.982 297.214Z" fill="#21262D"/>
<path d="M292.786 297.214L296.446 297.214L296.446 293.554L292.786 293.554L292.786 297.214Z" fill="#21262D"/>
<path d="M219.589 297.214L223.249 297.214L223.249 293.554L219.589 293.554L219.589 297.214Z" fill="#21262D"/>
<path d="M146.393 297.214L150.053 297.214L150.053 293.554L146.393 293.554L146.393 297.214Z" fill="#21262D"/>
<path d="M73.1964 297.214L76.8563 297.214L76.8563 293.554L73.1964 293.554L73.1964 297.214Z" fill="#21262D"/>
<path d="M-2.55962e-05 297.214L3.65976 297.214L3.65976 293.554L-2.59161e-05 293.554L-2.55962e-05 297.214Z" fill="#21262D"/>
<path d="M1244.34 224.018L1248 224.018L1248 220.358L1244.34 220.358L1244.34 224.018Z" fill="#21262D"/>
<path d="M1171.14 224.018L1174.8 224.018L1174.8 220.358L1171.14 220.358L1171.14 224.018Z" fill="#21262D"/>
<path d="M1097.95 224.018L1101.61 224.018L1101.61 220.358L1097.95 220.358L1097.95 224.018Z" fill="#21262D"/>
<path d="M1024.75 224.018L1028.41 224.018L1028.41 220.358L1024.75 220.358L1024.75 224.018Z" fill="#21262D"/>
<path d="M951.554 224.018L955.214 224.018L955.214 220.358L951.554 220.358L951.554 224.018Z" fill="#21262D"/>
<path d="M878.358 224.018L882.018 224.018L882.018 220.358L878.358 220.358L878.358 224.018Z" fill="#21262D"/>
<path d="M805.161 224.018L808.821 224.018L808.821 220.358L805.161 220.358L805.161 224.018Z" fill="#21262D"/>
<path d="M731.965 224.018L735.625 224.018L735.625 220.358L731.965 220.358L731.965 224.018Z" fill="#21262D"/>
<path d="M658.768 224.018L662.428 224.018L662.428 220.358L658.768 220.358L658.768 224.018Z" fill="#21262D"/>
<path d="M585.572 224.018L589.232 224.018L589.232 220.358L585.572 220.358L585.572 224.018Z" fill="#21262D"/>
<path d="M512.375 224.018L516.035 224.018L516.035 220.358L512.375 220.358L512.375 224.018Z" fill="#21262D"/>
<path d="M439.179 224.018L442.839 224.018L442.839 220.358L439.179 220.358L439.179 224.018Z" fill="#21262D"/>
<path d="M365.982 224.018L369.642 224.018L369.642 220.358L365.982 220.358L365.982 224.018Z" fill="#21262D"/>
<path d="M292.786 224.018L296.446 224.018L296.446 220.358L292.786 220.358L292.786 224.018Z" fill="#21262D"/>
<path d="M219.589 224.018L223.249 224.018L223.249 220.358L219.589 220.358L219.589 224.018Z" fill="#21262D"/>
<path d="M146.393 224.018L150.053 224.018L150.053 220.358L146.393 220.358L146.393 224.018Z" fill="#21262D"/>
<path d="M73.1964 224.018L76.8563 224.018L76.8563 220.358L73.1964 220.358L73.1964 224.018Z" fill="#21262D"/>
<path d="M-3.19952e-05 224.018L3.65976 224.018L3.65976 220.358L-3.23151e-05 220.358L-3.19952e-05 224.018Z" fill="#21262D"/>
<path d="M1244.34 150.821L1248 150.821L1248 147.161L1244.34 147.161L1244.34 150.821Z" fill="#21262D"/>
<path d="M1171.14 150.821L1174.8 150.821L1174.8 147.161L1171.14 147.161L1171.14 150.821Z" fill="#21262D"/>
<path d="M1097.95 150.821L1101.61 150.821L1101.61 147.161L1097.95 147.161L1097.95 150.821Z" fill="#21262D"/>
<path d="M1024.75 150.821L1028.41 150.821L1028.41 147.161L1024.75 147.161L1024.75 150.821Z" fill="#21262D"/>
<path d="M951.554 150.821L955.214 150.821L955.214 147.161L951.554 147.161L951.554 150.821Z" fill="#21262D"/>
<path d="M878.358 150.821L882.018 150.821L882.018 147.161L878.358 147.161L878.358 150.821Z" fill="#21262D"/>
<path d="M805.161 150.821L808.821 150.821L808.821 147.161L805.161 147.161L805.161 150.821Z" fill="#21262D"/>
<path d="M731.965 150.821L735.625 150.821L735.625 147.161L731.965 147.161L731.965 150.821Z" fill="#21262D"/>
<path d="M658.768 150.821L662.428 150.821L662.428 147.161L658.768 147.161L658.768 150.821Z" fill="#21262D"/>
<path d="M585.572 150.821L589.232 150.821L589.232 147.161L585.572 147.161L585.572 150.821Z" fill="#21262D"/>
<path d="M512.375 150.821L516.035 150.821L516.035 147.161L512.375 147.161L512.375 150.821Z" fill="#21262D"/>
<path d="M439.179 150.821L442.839 150.821L442.839 147.161L439.179 147.161L439.179 150.821Z" fill="#21262D"/>
<path d="M365.982 150.821L369.642 150.821L369.642 147.161L365.982 147.161L365.982 150.821Z" fill="#21262D"/>
<path d="M292.786 150.821L296.446 150.821L296.446 147.161L292.786 147.161L292.786 150.821Z" fill="#21262D"/>
<path d="M219.589 150.821L223.249 150.821L223.249 147.161L219.589 147.161L219.589 150.821Z" fill="#21262D"/>
<path d="M146.393 150.821L150.053 150.821L150.053 147.161L146.393 147.161L146.393 150.821Z" fill="#21262D"/>
<path d="M73.1964 150.821L76.8563 150.821L76.8563 147.161L73.1964 147.161L73.1964 150.821Z" fill="#21262D"/>
<path d="M-3.83942e-05 150.821L3.65975 150.821L3.65975 147.161L-3.87142e-05 147.161L-3.83942e-05 150.821Z" fill="#21262D"/>
<path d="M1244.34 77.6246L1248 77.6246L1248 73.9648L1244.34 73.9648L1244.34 77.6246Z" fill="#21262D"/>
<path d="M1171.14 77.6246L1174.8 77.6246L1174.8 73.9648L1171.14 73.9648L1171.14 77.6246Z" fill="#21262D"/>
<path d="M1097.95 77.6246L1101.61 77.6246L1101.61 73.9648L1097.95 73.9648L1097.95 77.6246Z" fill="#21262D"/>
<path d="M1024.75 77.6247L1028.41 77.6247L1028.41 73.9648L1024.75 73.9648L1024.75 77.6247Z" fill="#21262D"/>
<path d="M951.554 77.6247L955.214 77.6247L955.214 73.9648L951.554 73.9648L951.554 77.6247Z" fill="#21262D"/>
<path d="M878.358 77.6247L882.018 77.6247L882.018 73.9648L878.358 73.9648L878.358 77.6247Z" fill="#21262D"/>
<path d="M805.161 77.6247L808.821 77.6247L808.821 73.9648L805.161 73.9648L805.161 77.6247Z" fill="#21262D"/>
<path d="M731.965 77.6247L735.625 77.6247L735.625 73.9648L731.965 73.9648L731.965 77.6247Z" fill="#21262D"/>
<path d="M658.768 77.6247L662.428 77.6247L662.428 73.9648L658.768 73.9648L658.768 77.6247Z" fill="#21262D"/>
<path d="M585.572 77.6247L589.232 77.6247L589.232 73.9648L585.572 73.9648L585.572 77.6247Z" fill="#21262D"/>
<path d="M512.375 77.6247L516.035 77.6247L516.035 73.9648L512.375 73.9648L512.375 77.6247Z" fill="#21262D"/>
<path d="M439.179 77.6247L442.839 77.6247L442.839 73.9649L439.179 73.9649L439.179 77.6247Z" fill="#21262D"/>
<path d="M365.982 77.6247L369.642 77.6247L369.642 73.9649L365.982 73.9649L365.982 77.6247Z" fill="#21262D"/>
<path d="M292.786 77.6247L296.446 77.6247L296.446 73.9649L292.786 73.9649L292.786 77.6247Z" fill="#21262D"/>
<path d="M219.589 77.6247L223.249 77.6247L223.249 73.9649L219.589 73.9649L219.589 77.6247Z" fill="#21262D"/>
<path d="M146.393 77.6247L150.053 77.6247L150.053 73.9649L146.393 73.9649L146.393 77.6247Z" fill="#21262D"/>
<path d="M73.1964 77.6247L76.8563 77.6247L76.8563 73.9649L73.1964 73.9649L73.1964 77.6247Z" fill="#21262D"/>
<path d="M-4.47933e-05 77.6247L3.65975 77.6247L3.65974 73.9649L-4.51132e-05 73.9649L-4.47933e-05 77.6247Z" fill="#21262D"/>
<path d="M1244.34 4.42816L1248 4.42816L1248 0.768372L1244.34 0.768372L1244.34 4.42816Z" fill="#21262D"/>
<path d="M1171.14 4.42817L1174.8 4.42817L1174.8 0.768378L1171.14 0.768378L1171.14 4.42817Z" fill="#21262D"/>
<path d="M1097.95 4.42817L1101.61 4.42817L1101.61 0.768384L1097.95 0.768385L1097.95 4.42817Z" fill="#21262D"/>
<path d="M1024.75 4.42818L1028.41 4.42818L1028.41 0.768391L1024.75 0.768391L1024.75 4.42818Z" fill="#21262D"/>
<path d="M951.554 4.42819L955.214 4.42819L955.214 0.768397L951.554 0.768397L951.554 4.42819Z" fill="#21262D"/>
<path d="M878.358 4.42819L882.018 4.42819L882.018 0.768404L878.358 0.768404L878.358 4.42819Z" fill="#21262D"/>
<path d="M805.161 4.4282L808.821 4.4282L808.821 0.76841L805.161 0.76841L805.161 4.4282Z" fill="#21262D"/>
<path d="M731.965 4.42821L735.625 4.42821L735.625 0.768416L731.965 0.768417L731.965 4.42821Z" fill="#21262D"/>
<path d="M658.768 4.42821L662.428 4.42821L662.428 0.768423L658.768 0.768423L658.768 4.42821Z" fill="#21262D"/>
<path d="M585.572 4.42822L589.232 4.42822L589.232 0.768429L585.572 0.768429L585.572 4.42822Z" fill="#21262D"/>
<path d="M512.375 4.42823L516.035 4.42823L516.035 0.768436L512.375 0.768436L512.375 4.42823Z" fill="#21262D"/>
<path d="M439.179 4.42823L442.839 4.42823L442.839 0.768442L439.179 0.768442L439.179 4.42823Z" fill="#21262D"/>
<path d="M365.982 4.42824L369.642 4.42824L369.642 0.768448L365.982 0.768449L365.982 4.42824Z" fill="#21262D"/>
<path d="M292.786 4.42825L296.446 4.42824L296.446 0.768455L292.786 0.768455L292.786 4.42825Z" fill="#21262D"/>
<path d="M219.589 4.42825L223.249 4.42825L223.249 0.768461L219.589 0.768461L219.589 4.42825Z" fill="#21262D"/>
<path d="M146.393 4.42826L150.053 4.42826L150.053 0.768468L146.393 0.768468L146.393 4.42826Z" fill="#21262D"/>
<path d="M73.1964 4.42826L76.8563 4.42826L76.8563 0.768474L73.1964 0.768474L73.1964 4.42826Z" fill="#21262D"/>
<path d="M-5.11923e-05 4.42827L3.65974 4.42827L3.65974 0.76848L-5.15123e-05 0.768481L-5.11923e-05 4.42827Z" fill="#21262D"/>
<g opacity="0.4">
<path d="M1244.34 516.804L1248 516.804L1248 513.144L1244.34 513.144L1244.34 516.804Z" fill="url(#paint0_linear_73:27649)"/>
<path d="M1171.14 516.804L1174.8 516.804L1174.8 513.144L1171.14 513.144L1171.14 516.804Z" fill="url(#paint1_linear_73:27649)"/>
<path d="M1024.75 516.804L1028.41 516.804L1028.41 513.144L1024.75 513.144L1024.75 516.804Z" fill="url(#paint2_linear_73:27649)"/>
<path d="M805.161 516.804L808.821 516.804L808.821 513.144L805.161 513.144L805.161 516.804Z" fill="url(#paint3_linear_73:27649)"/>
<path d="M731.965 516.804L735.625 516.804L735.625 513.144L731.965 513.144L731.965 516.804Z" fill="url(#paint4_linear_73:27649)"/>
<path d="M658.768 516.804L662.428 516.804L662.428 513.144L658.768 513.144L658.768 516.804Z" fill="url(#paint5_linear_73:27649)"/>
<path d="M585.572 516.804L589.232 516.804L589.232 513.144L585.572 513.144L585.572 516.804Z" fill="url(#paint6_linear_73:27649)"/>
<path d="M439.179 516.804L442.839 516.804L442.839 513.144L439.179 513.144L439.179 516.804Z" fill="url(#paint7_linear_73:27649)"/>
<path d="M365.982 516.804L369.642 516.804L369.642 513.144L365.982 513.144L365.982 516.804Z" fill="url(#paint8_linear_73:27649)"/>
<path d="M292.786 516.804L296.446 516.804L296.446 513.144L292.786 513.144L292.786 516.804Z" fill="url(#paint9_linear_73:27649)"/>
<path d="M0 516.804L3.65979 516.804L3.65979 513.144L-3.19952e-07 513.144L0 516.804Z" fill="url(#paint10_linear_73:27649)"/>
<path d="M73.1964 443.607L76.8563 443.607L76.8563 439.947L73.1964 439.947L73.1964 443.607Z" fill="url(#paint11_linear_73:27649)"/>
<path d="M-6.39904e-06 443.607L3.65978 443.607L3.65978 439.948L-6.71899e-06 439.948L-6.39904e-06 443.607Z" fill="url(#paint12_linear_73:27649)"/>
<path d="M1097.95 370.411L1101.61 370.411L1101.61 366.751L1097.95 366.751L1097.95 370.411Z" fill="url(#paint13_linear_73:27649)"/>
<path d="M73.1964 370.411L76.8563 370.411L76.8563 366.751L73.1964 366.751L73.1964 370.411Z" fill="url(#paint14_linear_73:27649)"/>
<path d="M1097.95 297.214L1101.61 297.214L1101.61 293.554L1097.95 293.554L1097.95 297.214Z" fill="url(#paint15_linear_73:27649)"/>
<path d="M-1.91971e-05 297.214L3.65977 297.214L3.65977 293.555L-1.95171e-05 293.555L-1.91971e-05 297.214Z" fill="url(#paint16_linear_73:27649)"/>
<path d="M1171.14 224.018L1174.8 224.018L1174.8 220.358L1171.14 220.358L1171.14 224.018Z" fill="url(#paint17_linear_73:27649)"/>
<path d="M1097.95 224.018L1101.61 224.018L1101.61 220.358L1097.95 220.358L1097.95 224.018Z" fill="url(#paint18_linear_73:27649)"/>
<path d="M-2.55962e-05 224.018L3.65976 224.018L3.65976 220.358L-2.59161e-05 220.358L-2.55962e-05 224.018Z" fill="url(#paint19_linear_73:27649)"/>
<path d="M1244.34 150.821L1248 150.821L1248 147.161L1244.34 147.161L1244.34 150.821Z" fill="url(#paint20_linear_73:27649)"/>
<path d="M1097.95 150.821L1101.61 150.821L1101.61 147.161L1097.95 147.161L1097.95 150.821Z" fill="url(#paint21_linear_73:27649)"/>
<path d="M73.1964 150.821L76.8563 150.821L76.8563 147.162L73.1964 147.162L73.1964 150.821Z" fill="url(#paint22_linear_73:27649)"/>
<path d="M-3.19952e-05 150.821L3.65976 150.821L3.65976 147.162L-3.23152e-05 147.162L-3.19952e-05 150.821Z" fill="url(#paint23_linear_73:27649)"/>
<path d="M1097.95 77.6248L1101.61 77.6248L1101.61 73.965L1097.95 73.965L1097.95 77.6248Z" fill="url(#paint24_linear_73:27649)"/>
<path d="M146.393 77.6249L150.053 77.6249L150.053 73.9651L146.393 73.9651L146.393 77.6249Z" fill="url(#paint25_linear_73:27649)"/>
<path d="M73.1964 77.6249L76.8563 77.6249L76.8563 73.9651L73.1964 73.9651L73.1964 77.6249Z" fill="url(#paint26_linear_73:27649)"/>
<path d="M1244.34 4.42835L1248 4.42834L1248 0.768494L1244.34 0.768494L1244.34 4.42835Z" fill="url(#paint27_linear_73:27649)"/>
<path d="M-4.47933e-05 4.42845L3.65975 4.42845L3.65974 0.768602L-4.51132e-05 0.768603L-4.47933e-05 4.42845Z" fill="url(#paint28_linear_73:27649)"/>
<path d="M951.791 150.821L955.45 150.821L955.45 147.161L951.791 147.161L951.791 150.821Z" fill="url(#paint29_linear_73:27649)"/>
<path d="M292.786 150.821L296.446 150.821L296.446 147.162L292.786 147.162L292.786 150.821Z" fill="url(#paint30_linear_73:27649)"/>
<path d="M219.589 150.821L223.249 150.821L223.249 147.162L219.589 147.162L219.589 150.821Z" fill="url(#paint31_linear_73:27649)"/>
</g>
<defs>
<linearGradient id="paint0_linear_73:27649" x1="1248" y1="673.858" x2="214.958" y2="556.132" gradientUnits="userSpaceOnUse">
<stop stop-color="#56D364"/>
<stop offset="1" stop-color="#79C0FF"/>
</linearGradient>
<linearGradient id="paint1_linear_73:27649" x1="1248" y1="673.858" x2="214.958" y2="556.132" gradientUnits="userSpaceOnUse">
<stop stop-color="#56D364"/>
<stop offset="1" stop-color="#79C0FF"/>
</linearGradient>
<linearGradient id="paint2_linear_73:27649" x1="1248" y1="673.858" x2="214.958" y2="556.132" gradientUnits="userSpaceOnUse">
<stop stop-color="#56D364"/>
<stop offset="1" stop-color="#79C0FF"/>
</linearGradient>
<linearGradient id="paint3_linear_73:27649" x1="1248" y1="673.858" x2="214.958" y2="556.132" gradientUnits="userSpaceOnUse">
<stop stop-color="#56D364"/>
<stop offset="1" stop-color="#79C0FF"/>
</linearGradient>
<linearGradient id="paint4_linear_73:27649" x1="1248" y1="673.858" x2="214.958" y2="556.132" gradientUnits="userSpaceOnUse">
<stop stop-color="#56D364"/>
<stop offset="1" stop-color="#79C0FF"/>
</linearGradient>
<linearGradient id="paint5_linear_73:27649" x1="1248" y1="673.858" x2="214.958" y2="556.132" gradientUnits="userSpaceOnUse">
<stop stop-color="#56D364"/>
<stop offset="1" stop-color="#79C0FF"/>
</linearGradient>
<linearGradient id="paint6_linear_73:27649" x1="1248" y1="673.858" x2="214.958" y2="556.132" gradientUnits="userSpaceOnUse">
<stop stop-color="#56D364"/>
<stop offset="1" stop-color="#79C0FF"/>
</linearGradient>
<linearGradient id="paint7_linear_73:27649" x1="1248" y1="673.858" x2="214.958" y2="556.132" gradientUnits="userSpaceOnUse">
<stop stop-color="#56D364"/>
<stop offset="1" stop-color="#79C0FF"/>
</linearGradient>
<linearGradient id="paint8_linear_73:27649" x1="1248" y1="673.858" x2="214.958" y2="556.132" gradientUnits="userSpaceOnUse">
<stop stop-color="#56D364"/>
<stop offset="1" stop-color="#79C0FF"/>
</linearGradient>
<linearGradient id="paint9_linear_73:27649" x1="1248" y1="673.858" x2="214.958" y2="556.132" gradientUnits="userSpaceOnUse">
<stop stop-color="#56D364"/>
<stop offset="1" stop-color="#79C0FF"/>
</linearGradient>
<linearGradient id="paint10_linear_73:27649" x1="1248" y1="673.858" x2="214.958" y2="556.132" gradientUnits="userSpaceOnUse">
<stop stop-color="#56D364"/>
<stop offset="1" stop-color="#79C0FF"/>
</linearGradient>
<linearGradient id="paint11_linear_73:27649" x1="1248" y1="673.858" x2="214.958" y2="556.132" gradientUnits="userSpaceOnUse">
<stop stop-color="#56D364"/>
<stop offset="1" stop-color="#79C0FF"/>
</linearGradient>
<linearGradient id="paint12_linear_73:27649" x1="1248" y1="673.858" x2="214.958" y2="556.132" gradientUnits="userSpaceOnUse">
<stop stop-color="#56D364"/>
<stop offset="1" stop-color="#79C0FF"/>
</linearGradient>
<linearGradient id="paint13_linear_73:27649" x1="1248" y1="673.858" x2="214.958" y2="556.132" gradientUnits="userSpaceOnUse">
<stop stop-color="#56D364"/>
<stop offset="1" stop-color="#79C0FF"/>
</linearGradient>
<linearGradient id="paint14_linear_73:27649" x1="1248" y1="673.858" x2="214.958" y2="556.132" gradientUnits="userSpaceOnUse">
<stop stop-color="#56D364"/>
<stop offset="1" stop-color="#79C0FF"/>
</linearGradient>
<linearGradient id="paint15_linear_73:27649" x1="1248" y1="673.858" x2="214.958" y2="556.132" gradientUnits="userSpaceOnUse">
<stop stop-color="#56D364"/>
<stop offset="1" stop-color="#79C0FF"/>
</linearGradient>
<linearGradient id="paint16_linear_73:27649" x1="1248" y1="673.858" x2="214.958" y2="556.132" gradientUnits="userSpaceOnUse">
<stop stop-color="#56D364"/>
<stop offset="1" stop-color="#79C0FF"/>
</linearGradient>
<linearGradient id="paint17_linear_73:27649" x1="1248" y1="673.858" x2="214.958" y2="556.132" gradientUnits="userSpaceOnUse">
<stop stop-color="#56D364"/>
<stop offset="1" stop-color="#79C0FF"/>
</linearGradient>
<linearGradient id="paint18_linear_73:27649" x1="1248" y1="673.858" x2="214.958" y2="556.132" gradientUnits="userSpaceOnUse">
<stop stop-color="#56D364"/>
<stop offset="1" stop-color="#79C0FF"/>
</linearGradient>
<linearGradient id="paint19_linear_73:27649" x1="1248" y1="673.858" x2="214.958" y2="556.132" gradientUnits="userSpaceOnUse">
<stop stop-color="#56D364"/>
<stop offset="1" stop-color="#79C0FF"/>
</linearGradient>
<linearGradient id="paint20_linear_73:27649" x1="1248" y1="673.858" x2="214.958" y2="556.132" gradientUnits="userSpaceOnUse">
<stop stop-color="#56D364"/>
<stop offset="1" stop-color="#79C0FF"/>
</linearGradient>
<linearGradient id="paint21_linear_73:27649" x1="1248" y1="673.858" x2="214.958" y2="556.132" gradientUnits="userSpaceOnUse">
<stop stop-color="#56D364"/>
<stop offset="1" stop-color="#79C0FF"/>
</linearGradient>
<linearGradient id="paint22_linear_73:27649" x1="1248" y1="673.858" x2="214.958" y2="556.132" gradientUnits="userSpaceOnUse">
<stop stop-color="#56D364"/>
<stop offset="1" stop-color="#79C0FF"/>
</linearGradient>
<linearGradient id="paint23_linear_73:27649" x1="1248" y1="673.858" x2="214.958" y2="556.132" gradientUnits="userSpaceOnUse">
<stop stop-color="#56D364"/>
<stop offset="1" stop-color="#79C0FF"/>
</linearGradient>
<linearGradient id="paint24_linear_73:27649" x1="1248" y1="673.858" x2="214.958" y2="556.132" gradientUnits="userSpaceOnUse">
<stop stop-color="#56D364"/>
<stop offset="1" stop-color="#79C0FF"/>
</linearGradient>
<linearGradient id="paint25_linear_73:27649" x1="1248" y1="673.858" x2="214.958" y2="556.132" gradientUnits="userSpaceOnUse">
<stop stop-color="#56D364"/>
<stop offset="1" stop-color="#79C0FF"/>
</linearGradient>
<linearGradient id="paint26_linear_73:27649" x1="1248" y1="673.858" x2="214.958" y2="556.132" gradientUnits="userSpaceOnUse">
<stop stop-color="#56D364"/>
<stop offset="1" stop-color="#79C0FF"/>
</linearGradient>
<linearGradient id="paint27_linear_73:27649" x1="1248" y1="673.858" x2="214.958" y2="556.132" gradientUnits="userSpaceOnUse">
<stop stop-color="#56D364"/>
<stop offset="1" stop-color="#79C0FF"/>
</linearGradient>
<linearGradient id="paint28_linear_73:27649" x1="1248" y1="673.858" x2="214.958" y2="556.132" gradientUnits="userSpaceOnUse">
<stop stop-color="#56D364"/>
<stop offset="1" stop-color="#79C0FF"/>
</linearGradient>
<linearGradient id="paint29_linear_73:27649" x1="1248" y1="673.858" x2="214.958" y2="556.132" gradientUnits="userSpaceOnUse">
<stop stop-color="#56D364"/>
<stop offset="1" stop-color="#79C0FF"/>
</linearGradient>
<linearGradient id="paint30_linear_73:27649" x1="1248" y1="673.858" x2="214.958" y2="556.132" gradientUnits="userSpaceOnUse">
<stop stop-color="#56D364"/>
<stop offset="1" stop-color="#79C0FF"/>
</linearGradient>
<linearGradient id="paint31_linear_73:27649" x1="1248" y1="673.858" x2="214.958" y2="556.132" gradientUnits="userSpaceOnUse">
<stop stop-color="#56D364"/>
<stop offset="1" stop-color="#79C0FF"/>
</linearGradient>
</defs>
</svg>
