<svg width="25" height="24" viewBox="0 0 25 24" fill="none" xmlns="http://www.w3.org/2000/svg">
<path fill-rule="evenodd" clip-rule="evenodd" d="M2.7663 0.0478516C1.78699 0.0478516 0.992554 0.815021 0.992554 1.76016V22.2401C0.992554 23.1853 1.78708 23.9519 2.7663 23.9519H23.2188C24.1985 23.9519 24.9926 23.1852 24.9926 22.2398V1.76016C24.9926 0.815021 24.1985 0.0478516 23.2188 0.0478516H2.7663ZM8.28585 9.29063V20.0523H4.69448V9.29063H8.28585ZM8.52257 5.96247C8.52257 6.9952 7.74304 7.82156 6.49091 7.82156L6.49063 7.82147H6.46738C5.26204 7.82147 4.48279 6.9951 4.48279 5.96237C4.48279 4.90621 5.28557 4.10291 6.51473 4.10291C7.74304 4.10291 8.49913 4.90621 8.52257 5.96247ZM13.8648 20.0523H10.2737L10.2736 20.0527C10.2736 20.0527 10.3208 10.3006 10.2739 9.29101H13.8651V10.8143C14.3425 10.0811 15.1969 9.03833 17.1018 9.03833C19.4646 9.03833 21.2361 10.5765 21.2361 13.8819V20.0523H17.6451V14.2957C17.6451 12.8489 17.1251 11.8621 15.8259 11.8621C14.8335 11.8621 14.2426 12.5276 13.9831 13.1705C13.8883 13.3999 13.8648 13.7219 13.8648 14.0431V20.0523Z" fill="#586069"/>
</svg>
