<svg width="142" height="40" viewBox="0 0 142 40" fill="none" xmlns="http://www.w3.org/2000/svg">
<path fill-rule="evenodd" clip-rule="evenodd" d="M58.3493 23.5112L64.4596 39.7264H61.3588L59.9179 35.6954H53.5339L52.1477 39.7264H49.0652L55.1755 23.5112H58.3493ZM56.6712 26.5025L54.2818 33.3242H59.1336L56.7624 26.5025H56.6712ZM65.8276 28.0894H75.1117V29.1838L69.0196 37.5376H75.1482V39.7082H65.4081V38.4131L71.409 30.2599H65.8276V28.0894ZM86.7852 39.7082V28.0894H84.0127V34.8199C84.0127 35.6954 83.7938 36.4067 83.3196 36.9539C82.8636 37.5011 82.1705 37.793 81.4592 37.7747C80.6748 37.7747 80.0912 37.5194 79.7081 37.0269C79.3251 36.5344 79.1244 35.8048 79.1244 34.8199V28.0894H76.352V35.1482C76.352 36.7533 76.6986 37.9389 77.4099 38.705C78.1213 39.471 79.1427 39.8541 80.4924 39.8541C81.2038 39.8723 81.8969 39.7264 82.5353 39.4163C83.119 39.1427 83.6297 38.705 83.9945 38.176H84.031V39.7082H86.7852ZM95.0114 27.907C95.212 27.907 95.4126 27.9252 95.595 27.9435C95.741 27.9617 95.8869 27.9982 96.0328 28.0529V30.8253C95.8322 30.6977 95.6315 30.5882 95.4126 30.5335C95.0843 30.4241 94.756 30.3876 94.4095 30.3876C93.7346 30.3876 93.1144 30.6977 92.7131 31.2266C92.2571 31.7921 92.02 32.6676 92.02 33.8349V39.7082H89.284V28.0894H92.02V29.9134H92.0565C92.2754 29.3114 92.6767 28.8007 93.1874 28.4359C93.7346 28.0711 94.373 27.8887 95.0114 27.907ZM105.882 39.0333V36.7898C105.408 37.1181 104.861 37.3917 104.314 37.5741C103.712 37.7747 103.073 37.8659 102.435 37.8659C101.432 37.8659 100.629 37.6288 99.9908 37.1728C99.3524 36.7168 98.9876 35.896 98.86 34.7287H106.813V33.3972C106.813 31.6644 106.375 30.3146 105.481 29.3297C104.587 28.3447 103.347 27.8523 101.742 27.8523C100.21 27.8158 98.7505 28.4542 97.7473 29.6033C96.7077 30.7706 96.1787 32.2481 96.1787 34.0538C96.1787 35.9325 96.6712 37.3917 97.6561 38.4314C98.6229 39.471 100.009 40 101.778 40C102.563 40 103.347 39.9088 104.113 39.7264C104.733 39.5987 105.335 39.3616 105.882 39.0333ZM103.511 30.6612C103.931 31.1354 104.131 31.8103 104.131 32.7223L98.9329 32.7405C99.0971 31.8285 99.4619 31.1354 99.9726 30.6612C100.447 30.2052 101.085 29.9498 101.742 29.9498C102.508 29.9498 103.092 30.187 103.511 30.6612Z" fill="white"/>
<path d="M67.5786 1.22207V17.4373H64.7697V4.72412H64.7332L59.699 17.4373H57.8386L52.6767 4.72412H52.6402V17.4373H50.0319V1.22207H54.0629L58.7141 13.2421H58.787L63.7118 1.22207H67.5786ZM69.9316 2.46238C69.9316 2.02462 70.0957 1.62335 70.424 1.33151C70.7341 1.03967 71.1536 0.875513 71.5914 0.875513C72.0291 0.857274 72.4669 1.03967 72.7952 1.34975C73.1053 1.64159 73.2695 2.04286 73.2695 2.48062C73.2695 2.90013 73.1053 3.31965 72.777 3.59325C72.4487 3.88509 72.0291 4.04925 71.5914 4.04925C71.1536 4.06749 70.7341 3.90333 70.4058 3.59325C70.114 3.28317 69.9316 2.8819 69.9316 2.46238ZM72.9594 5.81851V17.4373H70.2234V5.81851H72.9594ZM81.2585 15.4492C81.7145 15.4309 82.1705 15.3397 82.6083 15.1756C83.1007 14.9932 83.5567 14.7378 83.958 14.4277V16.9631C83.4838 17.2184 82.9913 17.4191 82.4806 17.5285C81.8787 17.6562 81.2768 17.7291 80.6566 17.7291C78.9421 17.7291 77.5558 17.1819 76.4797 16.1058C75.4035 15.0296 74.8746 13.6434 74.8746 11.9653C74.8746 10.1049 75.4218 8.55449 76.5161 7.35066C77.6105 6.14683 79.1609 5.54492 81.1673 5.54492C81.6963 5.54492 82.207 5.61787 82.7177 5.74555C83.1555 5.83675 83.575 6.00091 83.958 6.20155V8.79161C83.5567 8.49977 83.119 8.26265 82.663 8.08025C82.2252 7.9161 81.7692 7.8249 81.3132 7.8249C80.2371 7.8249 79.3616 8.17145 78.7049 8.88281C78.0483 9.59416 77.7017 10.5244 77.7017 11.71C77.7017 12.8773 78.0118 13.8076 78.6502 14.4642C79.2886 15.1208 80.1641 15.4492 81.2585 15.4492ZM91.7464 5.61787C91.9471 5.61787 92.1477 5.63611 92.3301 5.65435C92.476 5.67259 92.6219 5.70907 92.7679 5.76379V8.53625C92.5672 8.40857 92.3666 8.29913 92.1477 8.24441C91.8194 8.13497 91.4911 8.09849 91.1445 8.09849C90.4696 8.09849 89.8495 8.40857 89.4482 8.93752C88.9922 9.50296 88.7551 10.3785 88.7551 11.5458V17.4191H86.0191V5.80027H88.7551V7.62426H88.7916C89.0104 7.02234 89.4117 6.51163 89.9224 6.14683C90.4514 5.78203 91.0898 5.59963 91.7464 5.61787ZM92.9138 11.7829C92.9138 9.86776 93.461 8.33561 94.5371 7.22298C95.6133 6.09211 97.1272 5.54492 99.0606 5.54492C100.885 5.54492 102.289 6.09211 103.31 7.16826C104.332 8.24441 104.843 9.7036 104.843 11.5458C104.843 13.4245 104.295 14.9384 103.219 16.0511C102.143 17.1637 100.666 17.7291 98.787 17.7291C96.9813 17.7291 95.5586 17.2002 94.5006 16.1423C93.4427 15.0661 92.9138 13.6252 92.9138 11.7829ZM95.7592 11.6917C95.7592 12.9138 96.0328 13.8258 96.58 14.4642C97.1272 15.1026 97.9115 15.4309 98.9512 15.4309C99.9544 15.4309 100.702 15.1026 101.231 14.4642C101.742 13.8258 102.015 12.8773 102.015 11.6188C102.015 10.3602 101.742 9.43 101.213 8.79161C100.666 8.15321 99.9179 7.84313 98.9512 7.84313C97.948 7.84313 97.1637 8.17145 96.6165 8.84632C96.0328 9.50296 95.7592 10.4697 95.7592 11.6917ZM108.928 8.86456C108.91 9.21112 109.038 9.55768 109.293 9.77656C109.549 9.99544 110.096 10.2873 110.935 10.6156C112.029 11.0533 112.795 11.5458 113.233 12.093C113.671 12.6585 113.908 13.3516 113.89 14.0812C113.926 15.1026 113.452 16.0875 112.631 16.7077C111.792 17.3643 110.661 17.7109 109.22 17.7109C108.691 17.7109 108.144 17.6379 107.615 17.5285C107.104 17.4373 106.612 17.2914 106.138 17.0907V14.4095C106.63 14.756 107.177 15.0296 107.743 15.2303C108.235 15.4127 108.764 15.5221 109.311 15.5404C109.932 15.5404 110.388 15.4492 110.679 15.285C110.971 15.1026 111.154 14.756 111.117 14.4095C111.117 14.0447 110.953 13.6799 110.661 13.461C110.351 13.2057 109.786 12.8956 108.928 12.5673C107.925 12.1477 107.196 11.6735 106.776 11.1445C106.338 10.5609 106.119 9.84952 106.138 9.13816C106.119 8.13497 106.575 7.16826 107.378 6.54811C108.217 5.87323 109.293 5.54492 110.625 5.54492C111.081 5.54492 111.537 5.59963 111.993 5.67259C112.43 5.74555 112.85 5.85499 113.251 6.01915V8.60921C112.85 8.35385 112.43 8.13497 111.993 7.98905C111.537 7.8249 111.044 7.7337 110.552 7.7337C110.132 7.71546 109.694 7.80665 109.33 8.04377C109.074 8.20793 108.91 8.51801 108.928 8.86456ZM115.075 11.7829C115.075 9.86776 115.622 8.33561 116.699 7.22298C117.775 6.09211 119.289 5.54492 121.222 5.54492C123.046 5.54492 124.45 6.09211 125.472 7.16826C126.493 8.24441 127.004 9.7036 127.004 11.5458C127.004 13.4245 126.457 14.9384 125.381 16.0511C124.305 17.1637 122.827 17.7291 120.948 17.7291C119.143 17.7291 117.72 17.2002 116.662 16.1423C115.604 15.0661 115.075 13.6252 115.075 11.7829ZM117.939 11.6917C117.939 12.9138 118.212 13.8258 118.76 14.4642C119.307 15.1026 120.091 15.4309 121.131 15.4309C122.134 15.4309 122.882 15.1026 123.411 14.4642C123.922 13.8258 124.195 12.8773 124.195 11.6188C124.195 10.3602 123.922 9.43 123.393 8.79161C122.845 8.15321 122.098 7.84313 121.131 7.84313C120.128 7.84313 119.343 8.17145 118.796 8.84632C118.212 9.50296 117.921 10.4697 117.939 11.6917ZM136.088 8.04377H132.02V17.4191H129.248V8.04377H127.296V5.80027H129.248V4.17693C129.248 2.95486 129.649 1.95166 130.433 1.16735C131.236 0.383036 132.239 0 133.497 0C133.789 0 134.081 0.0182404 134.373 0.0547201C134.61 0.0911998 134.829 0.127677 135.048 0.200637V2.57182C134.902 2.49886 134.738 2.4259 134.574 2.37118C134.318 2.29822 134.063 2.26174 133.789 2.26174C133.297 2.22526 132.804 2.4259 132.458 2.7907C132.148 3.15549 132.002 3.68445 132.002 4.37756V5.78203H136.069V3.17374L138.823 2.3347V5.78203H141.596V8.02553H138.842V13.461C138.842 14.1724 138.969 14.6831 139.225 14.9749C139.48 15.2668 139.9 15.4127 140.447 15.4127C140.647 15.4127 140.83 15.3762 141.012 15.3032C141.213 15.2303 141.414 15.1391 141.596 15.0296V17.2914C141.322 17.4191 141.031 17.5103 140.739 17.565C140.337 17.6379 139.954 17.6927 139.553 17.6927C138.404 17.6927 137.528 17.3826 136.963 16.7807C136.379 16.1605 136.106 15.2485 136.106 14.0082L136.088 8.04377Z" fill="white"/>
<path d="M18.2946 1.22208H0V19.5166H18.2946V1.22208Z" fill="white"/>
<path d="M38.5043 1.22208H20.2097V19.5166H38.5043V1.22208Z" fill="white"/>
<path d="M18.2946 21.4136H0V39.7081H18.2946V21.4136Z" fill="white"/>
<path d="M38.5043 21.4136H20.2097V39.7081H38.5043V21.4136Z" fill="white"/>
</svg>
