<svg width="220" height="40" viewBox="0 0 220 40" fill="none" xmlns="http://www.w3.org/2000/svg">
<g clip-path="url(#clip0_204:27644)">
<path d="M64.8255 0C63.6308 0.000111422 62.4579 0.319766 61.4284 0.925826C60.3988 1.53189 59.5501 2.40229 58.9702 3.44681L58.834 3.72766L53.617 14.0766L46.9787 27.1574L51.3276 35.7277L51.5659 36.1957C52.2365 37.3818 53.2474 38.3394 54.4681 38.9447C55.6872 38.3372 56.6976 37.3802 57.3702 36.1957L57.6085 35.7277L70.6383 10.017L70.9532 9.39574C71.3963 8.37882 71.5796 7.26765 71.4866 6.16227C71.3935 5.05689 71.0271 3.992 70.4201 3.06346C69.8132 2.13493 68.9849 1.37191 68.0098 0.843085C67.0347 0.314261 65.9433 0.0362367 64.834 0.0340426L64.8255 0ZM24.5532 12.4511L20.2127 3.94043L19.9745 3.47234C19.3095 2.28709 18.3005 1.33152 17.0808 0.731915C15.8633 1.33058 14.8548 2.28273 14.1872 3.46383L13.9404 3.94043L0.893598 29.6255L0.578704 30.2383C-0.124876 31.8139 -0.192388 33.6004 0.390275 35.2246C0.972938 36.8488 2.1607 38.185 3.70539 38.9541C5.25009 39.7231 7.03221 39.8655 8.67942 39.3515C10.3266 38.8375 11.7115 37.7068 12.5447 36.1957L12.6893 35.9234L17.9404 25.5745L24.5702 12.5021L24.5532 12.4511Z" fill="white"/>
<path d="M64.8085 0C63.6151 0.000735839 62.4436 0.320734 61.4155 0.926808C60.3874 1.53288 59.5402 2.40296 58.9617 3.44681L58.817 3.72766L53.5659 14.0766L46.9191 27.1574L51.2766 35.7277L51.5149 36.1957C52.1829 37.3838 53.1945 38.342 54.417 38.9447C55.6395 38.342 56.6511 37.3838 57.3191 36.1957L57.5659 35.7277L70.6383 10.017L70.9447 9.39575C71.3878 8.37882 71.5711 7.26765 71.4781 6.16227C71.385 5.05689 71.0185 3.992 70.4116 3.06347C69.8047 2.13493 68.9764 1.37191 68.0013 0.843085C67.0261 0.314261 65.9348 0.0362367 64.8255 0.0340426L64.8085 0V0Z" fill="white"/>
<path d="M6.68933 39.6426C7.87852 39.646 9.04715 39.3325 10.0748 38.7341C11.1025 38.1357 11.9521 37.2742 12.5361 36.2383L12.6808 35.9575L17.9404 25.6085L24.5787 12.5277L20.2298 3.9149L19.9915 3.44681C19.3187 2.25951 18.3046 1.30178 17.0808 0.697876C15.8602 1.30317 14.8492 2.26076 14.1787 3.44681L13.9404 3.9149L0.851033 29.6255L0.53614 30.2468C0.0929859 31.2637 -0.0903166 32.3749 0.00273411 33.4803C0.0957848 34.5857 0.462267 35.6506 1.06919 36.5791C1.67611 37.5076 2.50442 38.2706 3.47954 38.7995C4.45467 39.3283 5.546 39.6063 6.65529 39.6085L6.68933 39.6426Z" fill="white"/>
<path d="M24.5531 12.4511L20.2127 3.94043L19.9744 3.47234C19.3064 2.28432 18.2948 1.32607 17.0723 0.723404C17.4788 0.524328 17.9034 0.364731 18.3404 0.246808C18.8968 0.105817 19.4685 0.0343501 20.0425 0.0340424H29.1319C30.3186 0.0373204 31.4834 0.353834 32.5085 0.951589C33.5337 1.54934 34.3828 2.40715 34.9702 3.4383L35.2085 3.90638L46.9617 27.1915L51.2936 35.7021L51.5319 36.1702C52.2074 37.3708 53.2312 38.3382 54.468 38.9447C53.5475 39.3922 52.5384 39.6277 51.5149 39.634H42.3744C41.189 39.6301 40.0256 39.3133 39.002 38.7155C37.9783 38.1177 37.1306 37.2603 36.5446 36.2298L36.2978 35.7617L24.5531 12.4511Z" fill="white"/>
<path d="M82.5532 20.2723C82.5423 20.1758 82.5534 20.0781 82.5855 19.9865C82.6176 19.8948 82.6699 19.8115 82.7386 19.7429C82.8073 19.6742 82.8905 19.6219 82.9822 19.5898C83.0738 19.5577 83.1715 19.5466 83.2681 19.5574H83.7787C83.8729 19.5504 83.9674 19.5644 84.0556 19.5984C84.1437 19.6323 84.2232 19.6854 84.2883 19.7538C84.3534 19.8222 84.4026 19.9041 84.4322 19.9938C84.4618 20.0835 84.4711 20.1786 84.4595 20.2723V21.9234C84.4595 22.2698 84.4221 22.6145 84.3489 22.9532H84.4085C84.9087 21.8376 85.7216 20.891 86.7487 20.2279C87.7758 19.5648 88.9732 19.2137 90.1957 19.217C93.7617 19.217 95.0127 21.2426 95.0127 24.7745V33.1915C95.0236 33.288 95.0125 33.3857 94.9804 33.4774C94.9483 33.569 94.896 33.6523 94.8273 33.721C94.7587 33.7896 94.6754 33.842 94.5837 33.8741C94.4921 33.9062 94.3944 33.9172 94.2978 33.9064H93.7617C93.6664 33.9164 93.5702 33.9046 93.4802 33.8718C93.3903 33.839 93.309 33.7861 93.2425 33.7172C93.176 33.6483 93.1262 33.5651 93.0967 33.474C93.0672 33.3829 93.0589 33.2863 93.0723 33.1915V25.2936C93.0723 23.0383 92.7064 21.0383 89.9404 21.0383C86.8851 21.0383 84.4936 23.5489 84.4936 26.8936V33.1915C84.5071 33.2863 84.4987 33.3829 84.4692 33.474C84.4397 33.5651 84.3899 33.6483 84.3234 33.7172C84.2569 33.7861 84.1756 33.839 84.0857 33.8718C83.9957 33.9046 83.8995 33.9164 83.8042 33.9064H83.2681C83.1715 33.9172 83.0738 33.9062 82.9822 33.8741C82.8905 33.842 82.8073 33.7896 82.7386 33.721C82.6699 33.6523 82.6176 33.569 82.5855 33.4774C82.5534 33.3857 82.5423 33.288 82.5532 33.1915V20.2723ZM105.438 25.1234H106.289V24.6638C106.289 21.8979 104.774 20.9532 102.749 20.9532C101.519 20.9674 100.316 21.3145 99.2681 21.9574C99.1909 22.0093 99.1039 22.0445 99.0125 22.061C98.9211 22.0775 98.8272 22.0749 98.7368 22.0533C98.6465 22.0317 98.5616 21.9916 98.4875 21.9356C98.4134 21.8795 98.3517 21.8087 98.3064 21.7277L98.1276 21.4383C98.0693 21.364 98.0279 21.2777 98.0064 21.1857C97.9849 21.0937 97.9839 20.998 98.0034 20.9055C98.0228 20.813 98.0623 20.7259 98.1191 20.6504C98.1759 20.5748 98.2485 20.5126 98.3319 20.4681C99.7098 19.6426 101.287 19.2099 102.894 19.217C106.298 19.217 108.23 21.1234 108.23 24.7234V33.234C108.243 33.3288 108.235 33.4255 108.205 33.5166C108.176 33.6077 108.126 33.6908 108.06 33.7598C107.993 33.8287 107.912 33.8815 107.822 33.9143C107.732 33.9471 107.636 33.9589 107.54 33.9489H107.089C106.992 33.9615 106.894 33.9516 106.802 33.9201C106.709 33.8886 106.625 33.8363 106.556 33.7673C106.487 33.6982 106.435 33.6142 106.403 33.5218C106.372 33.4293 106.362 33.3309 106.374 33.234V32.0511C106.371 31.689 106.399 31.3272 106.46 30.9702H106.383C105.99 31.9389 105.32 32.7704 104.458 33.3607C103.595 33.951 102.577 34.274 101.532 34.2894C99.1064 34.2894 96.6808 32.8681 96.6808 30.1021C96.6808 25.3787 102.672 25.1234 105.438 25.1234ZM101.872 32.5872C104.638 32.5872 106.264 29.7362 106.264 27.2255V26.5447H105.464C103.208 26.5447 98.6553 26.6298 98.6553 29.8468C98.6723 31.2255 99.7361 32.5872 101.872 32.5872ZM110.97 20.2723C110.959 20.1758 110.97 20.0781 111.002 19.9865C111.035 19.8948 111.087 19.8115 111.156 19.7429C111.224 19.6742 111.308 19.6219 111.399 19.5898C111.491 19.5577 111.589 19.5466 111.685 19.5574H112.196C112.29 19.5504 112.384 19.5644 112.473 19.5984C112.561 19.6323 112.64 19.6854 112.705 19.7538C112.77 19.8222 112.82 19.9041 112.849 19.9938C112.879 20.0835 112.888 20.1786 112.877 20.2723V21.9234C112.877 22.2698 112.839 22.6145 112.766 22.9532H112.826C113.265 21.8976 113.993 20.9872 114.927 20.3263C115.86 19.6655 116.96 19.2811 118.102 19.217C120.749 19.217 122.119 20.4426 122.519 22.8085H122.553C123.015 21.7805 123.752 20.9006 124.684 20.2666C125.615 19.6326 126.704 19.2693 127.83 19.217C131.311 19.217 132.587 21.2426 132.587 24.7745V33.1915C132.598 33.2872 132.587 33.3841 132.555 33.4751C132.524 33.566 132.472 33.6488 132.404 33.7173C132.337 33.7858 132.255 33.8384 132.164 33.8711C132.073 33.9038 131.977 33.9158 131.881 33.9064H131.362C131.265 33.9172 131.167 33.9062 131.076 33.8741C130.984 33.842 130.901 33.7896 130.832 33.721C130.764 33.6523 130.711 33.569 130.679 33.4774C130.647 33.3857 130.636 33.288 130.647 33.1915V25.2596C130.647 22.9277 130.17 21.0043 127.574 21.0043C124.689 21.0043 122.749 24.0255 122.749 26.9617V33.1745C122.764 33.2688 122.757 33.3653 122.728 33.4565C122.7 33.5476 122.651 33.6311 122.585 33.7002C122.519 33.7694 122.438 33.8224 122.349 33.8552C122.259 33.888 122.163 33.8997 122.068 33.8894H121.523C121.427 33.9002 121.329 33.8891 121.237 33.857C121.146 33.825 121.063 33.7726 120.994 33.704C120.925 33.6353 120.873 33.552 120.841 33.4604C120.809 33.3687 120.798 33.271 120.808 33.1745V25.2596C120.808 23.0979 120.494 21.0043 117.787 21.0043C114.877 21.0043 112.885 24.0851 112.885 26.9617V33.1745C112.899 33.2693 112.89 33.3659 112.861 33.457C112.831 33.5481 112.781 33.6313 112.715 33.7002C112.648 33.7691 112.567 33.822 112.477 33.8548C112.387 33.8875 112.291 33.8994 112.196 33.8894H111.66C111.563 33.9002 111.465 33.8891 111.374 33.857C111.282 33.825 111.199 33.7726 111.13 33.704C111.061 33.6353 111.009 33.552 110.977 33.4604C110.945 33.3687 110.934 33.271 110.945 33.1745L110.97 20.2723ZM141.515 19.217C145.336 19.217 147.472 21.983 147.472 26.0255C147.472 26.1223 147.453 26.2182 147.415 26.3072C147.377 26.3962 147.321 26.4766 147.251 26.5435C147.181 26.6103 147.098 26.6622 147.007 26.6961C146.917 26.73 146.82 26.745 146.723 26.7404H136.434C136.519 30.3915 139.03 32.4766 142 32.4766C143.366 32.4704 144.691 32.0059 145.762 31.1574C145.829 31.0932 145.911 31.0458 146.001 31.019C146.091 30.9923 146.185 30.987 146.277 31.0036C146.369 31.0202 146.456 31.0581 146.53 31.1144C146.605 31.1707 146.665 31.2438 146.706 31.3277L146.936 31.6766C146.986 31.7509 147.02 31.8345 147.037 31.9225C147.054 32.0104 147.053 32.1008 147.034 32.1882C147.015 32.2757 146.978 32.3584 146.926 32.4313C146.874 32.5043 146.808 32.566 146.732 32.6128C145.356 33.671 143.676 34.2588 141.94 34.2894C140.945 34.3218 139.953 34.1485 139.027 33.7801C138.101 33.4118 137.261 32.8564 136.56 32.1486C135.859 31.4409 135.311 30.5961 134.951 29.6669C134.591 28.7378 134.427 27.7445 134.468 26.7489C134.468 22.0426 137.634 19.217 141.515 19.217ZM145.532 25.3191C145.413 22.2979 143.591 20.8085 141.447 20.8085C140.209 20.8078 139.016 21.2704 138.103 22.1052C137.189 22.94 136.621 24.0866 136.511 25.3191H145.532ZM156.74 19.217C158.469 19.1953 160.152 19.7694 161.506 20.8426C161.586 20.893 161.653 20.9611 161.702 21.0416C161.751 21.1221 161.781 21.2128 161.789 21.3066C161.797 21.4005 161.784 21.495 161.749 21.5828C161.715 21.6705 161.661 21.7493 161.591 21.8128L161.396 22.1277C161.14 22.5277 160.825 22.5277 160.425 22.2723C159.397 21.4426 158.121 20.9786 156.8 20.9532C156.046 20.9442 155.298 21.0896 154.602 21.3803C153.906 21.671 153.277 22.101 152.753 22.6438C152.229 23.1867 151.822 23.8308 151.556 24.5368C151.291 25.2427 151.172 25.9955 151.208 26.7489C151.177 27.5017 151.3 28.253 151.569 28.9567C151.838 29.6603 152.249 30.3016 152.775 30.8411C153.3 31.3806 153.931 31.8069 154.628 32.094C155.324 32.3811 156.072 32.5229 156.826 32.5106C158.304 32.4974 159.73 31.9607 160.851 30.9957C160.916 30.9257 160.998 30.8732 161.088 30.8429C161.179 30.8127 161.276 30.8057 161.37 30.8227C161.464 30.8396 161.552 30.88 161.627 30.9399C161.701 30.9999 161.759 31.0776 161.796 31.166L161.991 31.4553C162.045 31.5292 162.083 31.613 162.103 31.7018C162.123 31.7905 162.125 31.8825 162.11 31.9721C162.094 32.0618 162.06 32.1474 162.01 32.2238C161.961 32.3002 161.897 32.3659 161.821 32.417C160.387 33.6081 158.579 34.2559 156.715 34.2468C155.719 34.2836 154.727 34.115 153.799 33.7515C152.871 33.3881 152.028 32.8375 151.322 32.1342C150.617 31.4308 150.063 30.5898 149.697 29.6633C149.33 28.7368 149.158 27.7448 149.191 26.7489C149.161 25.75 149.335 24.7554 149.704 23.8266C150.072 22.8977 150.628 22.0543 151.335 21.3484C152.043 20.6426 152.887 20.0893 153.817 19.7227C154.747 19.3561 155.742 19.184 156.74 19.217ZM163.957 14.5702C163.942 14.4759 163.949 14.3794 163.978 14.2882C164.006 14.197 164.055 14.1136 164.121 14.0445C164.187 13.9753 164.268 13.9223 164.358 13.8895C164.447 13.8567 164.543 13.845 164.638 13.8553H165.183C165.279 13.8445 165.377 13.8555 165.469 13.8876C165.56 13.9197 165.644 13.9721 165.712 14.0407C165.781 14.1094 165.833 14.1927 165.866 14.2843C165.898 14.376 165.909 14.4737 165.898 14.5702V21.7277C165.898 22.1192 165.861 22.5098 165.787 22.8936H165.838C166.344 21.7971 167.152 20.8682 168.169 20.2167C169.185 19.5652 170.367 19.2183 171.574 19.217C175.14 19.217 176.391 21.2426 176.391 24.7745V33.1915C176.391 33.6511 176.17 33.9064 175.711 33.9064H175.166C175.069 33.9172 174.972 33.9062 174.88 33.8741C174.788 33.842 174.705 33.7896 174.636 33.721C174.568 33.6523 174.515 33.569 174.483 33.4774C174.451 33.3857 174.44 33.288 174.451 33.1915V25.2936C174.451 23.0383 174.111 21.0383 171.319 21.0383C168.298 21.0383 165.898 23.5234 165.898 26.9957V33.2085C165.909 33.305 165.898 33.4027 165.866 33.4944C165.833 33.5861 165.781 33.6693 165.712 33.738C165.644 33.8067 165.56 33.859 165.469 33.8911C165.377 33.9232 165.279 33.9342 165.183 33.9234H164.638C164.543 33.9337 164.447 33.9221 164.358 33.8892C164.268 33.8564 164.187 33.8034 164.121 33.7342C164.055 33.6651 164.006 33.5817 163.978 33.4905C163.949 33.3993 163.942 33.3028 163.957 33.2085V14.5702ZM185.319 19.217C189.14 19.217 191.277 21.983 191.277 26.0255C191.277 26.1216 191.257 26.2167 191.22 26.3051C191.182 26.3936 191.127 26.4736 191.058 26.5403C190.989 26.607 190.907 26.6591 190.818 26.6935C190.728 26.7279 190.632 26.7439 190.536 26.7404H180.247C180.332 30.3915 182.843 32.4766 185.804 32.4766C187.173 32.4703 188.5 32.0059 189.574 31.1574C189.641 31.0932 189.723 31.0457 189.812 31.0189C189.901 30.9922 189.995 30.9869 190.086 31.0035C190.177 31.0201 190.263 31.0581 190.337 31.1145C190.411 31.1708 190.471 31.2439 190.511 31.3277L190.74 31.6766C190.791 31.7504 190.826 31.8336 190.843 31.9211C190.86 32.0087 190.86 32.0989 190.842 32.1863C190.823 32.2737 190.788 32.3565 190.737 32.4298C190.686 32.5031 190.62 32.5653 190.545 32.6128C189.167 33.6678 187.488 34.2552 185.753 34.2894C184.759 34.325 183.767 34.1555 182.841 33.7914C181.915 33.4274 181.073 32.8765 180.369 32.1731C179.665 31.4698 179.113 30.629 178.748 29.7031C178.383 28.7773 178.212 27.7862 178.247 26.7915C178.247 22.0426 181.438 19.217 185.319 19.217ZM189.345 25.3191C189.234 22.2979 187.404 20.8085 185.26 20.8085C184.022 20.806 182.829 21.2682 181.917 22.1036C181.004 22.939 180.439 24.0866 180.332 25.3191H189.345ZM200.953 25.1234H201.804V24.6638C201.804 21.8979 200.289 20.9532 198.264 20.9532C197.036 20.9625 195.835 21.31 194.791 21.9574C194.714 22.0094 194.626 22.0448 194.534 22.0614C194.442 22.078 194.347 22.0754 194.256 22.0538C194.165 22.0323 194.08 21.9922 194.005 21.9361C193.93 21.88 193.867 21.809 193.821 21.7277L193.651 21.4383C193.592 21.3645 193.55 21.2788 193.528 21.1871C193.506 21.0955 193.504 21.0001 193.523 20.9076C193.542 20.8152 193.58 20.728 193.636 20.652C193.692 20.5761 193.764 20.5133 193.847 20.4681C195.225 19.6426 196.802 19.2099 198.408 19.217C201.813 19.217 203.745 21.1234 203.745 24.7234V33.234C203.758 33.3288 203.75 33.4255 203.72 33.5166C203.691 33.6077 203.641 33.6908 203.574 33.7598C203.508 33.8287 203.427 33.8815 203.337 33.9143C203.247 33.9471 203.151 33.9589 203.055 33.9489H202.553C202.456 33.9615 202.358 33.9516 202.265 33.9201C202.173 33.8886 202.089 33.8363 202.02 33.7673C201.951 33.6982 201.899 33.6142 201.867 33.5218C201.836 33.4293 201.826 33.3309 201.838 33.234V32.0511C201.834 31.689 201.863 31.3272 201.923 30.9702H201.864C201.473 31.9337 200.809 32.7615 199.953 33.3514C199.096 33.9413 198.086 34.2674 197.047 34.2894C194.621 34.2894 192.196 32.8681 192.196 30.1021C192.196 25.3787 198.187 25.1234 200.953 25.1234ZM197.387 32.5872C200.153 32.5872 201.779 29.7362 201.779 27.2255V26.5447H200.979C198.723 26.5447 194.17 26.6298 194.17 29.8468C194.187 31.2255 195.243 32.5872 197.387 32.5872ZM206.511 20.2723C206.497 20.1775 206.505 20.0809 206.535 19.9898C206.564 19.8987 206.614 19.8156 206.681 19.7466C206.747 19.6777 206.829 19.6248 206.919 19.5921C207.008 19.5593 207.105 19.5474 207.2 19.5574H207.66C207.75 19.5458 207.842 19.5544 207.928 19.5827C208.015 19.611 208.094 19.6583 208.16 19.7211C208.226 19.7838 208.277 19.8605 208.31 19.9456C208.343 20.0307 208.356 20.1219 208.349 20.2128V21.2426C208.352 21.5679 208.323 21.8928 208.264 22.2128H208.315C208.77 21.2796 209.488 20.4994 210.38 19.9674C211.271 19.4354 212.299 19.1746 213.336 19.217C217.191 19.217 219.583 22.2979 219.583 26.7489C219.583 31.2 216.868 34.2894 213.132 34.2894C212.148 34.3008 211.18 34.0336 210.341 33.5186C209.503 33.0035 208.827 32.2617 208.391 31.3787H208.34C208.417 31.794 208.454 32.2162 208.451 32.6383V38.9362C208.462 39.0327 208.451 39.1304 208.419 39.2221C208.387 39.3137 208.334 39.397 208.266 39.4657C208.197 39.5343 208.114 39.5867 208.022 39.6188C207.93 39.6509 207.833 39.6619 207.736 39.6511H207.2C207.105 39.6611 207.008 39.6492 206.919 39.6165C206.829 39.5837 206.747 39.5308 206.681 39.4619C206.614 39.393 206.564 39.3098 206.535 39.2187C206.505 39.1276 206.497 39.031 206.511 38.9362V20.2723ZM212.928 32.5106C215.481 32.5106 217.583 30.4 217.583 26.7489C217.583 23.234 215.694 20.9872 213.047 20.9872C210.647 20.9872 208.391 22.6894 208.391 26.7745C208.391 29.6511 209.991 32.5106 212.928 32.5106Z" fill="white"/>
</g>
<defs>
<clipPath id="clip0_204:27644">
<rect width="219.574" height="40" fill="white"/>
</clipPath>
</defs>
</svg>
