<svg width="25" height="18" viewBox="0 0 25 18" fill="none" xmlns="http://www.w3.org/2000/svg">
<path d="M13.5243 17.2793L8.60039 17.1892C7.00615 17.1578 5.40794 17.2205 3.84496 16.8954C1.46731 16.4096 1.29887 14.028 1.12261 12.0303C0.879747 9.22168 0.973766 6.36213 1.43208 3.57699C1.69081 2.01424 2.70903 1.08173 4.28368 0.98026C9.59925 0.611995 14.9502 0.655638 20.254 0.827447C20.8141 0.843197 21.3781 0.929282 21.9305 1.02727C24.6569 1.50519 24.7234 4.20411 24.9001 6.47611C25.0764 8.77154 25.0019 11.0788 24.6651 13.3586C24.3948 15.2462 23.8777 16.8291 21.6954 16.9819C18.9611 17.1818 16.2897 17.3426 13.5477 17.2914C13.5478 17.2793 13.5321 17.2793 13.5243 17.2793ZM10.6295 12.5004C12.69 11.3173 14.7112 10.154 16.7599 8.97882C14.6955 7.79575 12.6782 6.63241 10.6295 5.45727V12.5004Z" fill="#586069"/>
</svg>
