<svg width="235" height="40" viewBox="0 0 235 40" fill="none" xmlns="http://www.w3.org/2000/svg">
<path fill-rule="evenodd" clip-rule="evenodd" d="M20.233 39.6505V32.0388C28.3107 32.0388 34.5243 24.0388 31.4563 15.5728C30.2913 12.4272 27.8058 9.9029 24.6602 8.77668C16.1942 5.70872 8.19417 11.9223 8.19417 20H0.58252C0.58252 7.14562 13.0097 -2.8738 26.4854 1.32037C32.3883 3.14562 37.0485 7.84465 38.8738 13.7087C43.068 27.2233 33.0874 39.6505 20.233 39.6505ZM20.233 32.0388H12.6602V24.466H20.233V32.0388ZM6.83495 32.0388L12.6602 32.0388L12.6602 37.8641H6.83495V32.0388ZM6.83495 32.0388L1.94174 32.0388V27.1844H6.83495V32.0388ZM156.971 32.2719C150.563 32.2719 145.32 27.068 145.32 20.6214C145.32 14.1748 150.524 8.97089 156.971 8.97089C163.379 8.97089 168.621 14.1748 168.621 20.6214C168.621 27.068 163.379 32.2719 156.971 32.2719ZM156.971 13.1262C152.816 13.1262 149.437 16.5049 149.437 20.6602C149.437 24.8155 152.816 28.1942 156.971 28.1942C161.126 28.1942 164.505 24.8155 164.505 20.6602C164.505 16.5049 161.126 13.1262 156.971 13.1262ZM79.3398 9.08734C78.6408 9.08734 78.0583 9.32035 77.5922 9.78637C77.1262 10.2524 76.8544 10.8349 76.8544 11.4951C76.8544 12.1941 77.0874 12.7767 77.5922 13.2427C78.0583 13.7087 78.6408 13.9805 79.3398 13.9805C80.0388 13.9805 80.6214 13.7475 81.0874 13.2427C81.5534 12.7767 81.8253 12.1553 81.8253 11.4951C81.8253 10.7961 81.5922 10.2136 81.0874 9.78637C80.6214 9.32035 80 9.08734 79.3398 9.08734ZM70.4855 11.7282C68.233 10.1748 65.4369 9.35925 62.1748 9.35925H55.068V31.9224H62.1748C65.4369 31.9224 68.233 31.1068 70.4855 29.4369C71.7282 28.5826 72.699 27.3398 73.3592 25.8253C74.0194 24.3107 74.3689 22.5243 74.3689 20.5049C74.3689 18.5243 74.0194 16.7379 73.3592 15.2233C72.699 13.7476 71.7282 12.5437 70.4855 11.7282ZM59.2621 13.2039H61.4757C63.9612 13.2039 66.0194 13.7088 67.5728 14.6408C69.2816 15.6894 70.1748 17.6699 70.1748 20.5049C70.1748 23.4563 69.2816 25.5146 67.5728 26.6408C66.0971 27.6117 64.0388 28.1165 61.5146 28.1165H59.2621V13.2039ZM77.2816 16.0389H81.2816V31.9612H77.2816V16.0389ZM95.8447 17.3593C94.6408 16.2719 93.2816 15.6505 91.8447 15.6505C89.6311 15.6505 87.8058 16.4272 86.369 17.9029C84.9321 19.3787 84.233 21.3204 84.233 23.6117C84.233 25.8641 84.9321 27.767 86.369 29.3204C87.8058 30.7961 89.6311 31.5728 91.8447 31.5728C93.3981 31.5728 94.7185 31.1457 95.8058 30.2913V30.6796C95.8058 32 95.4563 33.0097 94.7573 33.7476C94.0583 34.4466 93.0874 34.7961 91.8835 34.7961C90.0194 34.7961 88.8932 34.0583 87.4563 32.1554L84.7379 34.7573L84.8156 34.8738C85.3981 35.6893 86.2913 36.5049 87.4952 37.2816C88.6991 38.0583 90.1748 38.4466 91.9612 38.4466C94.3301 38.4466 96.2719 37.7088 97.6699 36.2719C99.1068 34.835 99.8059 32.8932 99.8059 30.4855V16.0389H95.8835V17.3593H95.8447ZM94.7961 26.7573C94.0971 27.534 93.2039 27.9224 92.0389 27.9224C90.8738 27.9224 89.9806 27.534 89.3204 26.7573C88.6214 25.9806 88.2719 24.9321 88.2719 23.6505C88.2719 22.369 88.6214 21.2816 89.3204 20.5049C90.0194 19.7282 90.9126 19.301 92.0389 19.301C93.2039 19.301 94.0971 19.6893 94.7961 20.5049C95.4952 21.2816 95.8447 22.369 95.8447 23.6505C95.8447 24.9321 95.4563 25.9806 94.7961 26.7573ZM103.184 16.0389H107.184V31.9612H103.184V16.0389ZM105.243 9.08734C104.544 9.08734 103.961 9.32035 103.495 9.78637C103.029 10.2524 102.757 10.8349 102.757 11.4951C102.757 12.1941 102.99 12.7767 103.495 13.2427C103.961 13.7087 104.544 13.9805 105.243 13.9805C105.942 13.9805 106.524 13.7475 106.99 13.2427C107.456 12.7767 107.728 12.1553 107.728 11.4951C107.728 10.7961 107.495 10.2136 106.99 9.78637C106.524 9.32035 105.903 9.08734 105.243 9.08734ZM112.039 11.767H115.961H116V16.0389H119.728V19.6894H116V25.7476C116 26.7962 116.155 27.4952 116.466 27.8447C116.777 28.1942 117.398 28.3496 118.369 28.3496L119.728 28.2719V31.9224H119.534C118.913 31.9612 118.252 32 117.592 32C115.534 32 114.097 31.5729 113.282 30.7185C112.466 29.8641 112.039 28.3884 112.039 26.3301V19.7282H109.748V16.0777H112.039V11.767ZM142.447 9.35925H138.447V31.9224H142.447V9.35925ZM180.854 28.1165C181.437 27.767 182.175 27.068 182.874 26.2525L185.398 28.7379C183.845 31.0292 181.515 32.2719 178.602 32.2719C176.388 32.2719 174.485 31.4952 172.932 29.9029C171.379 28.3107 170.602 26.3301 170.602 23.9612C170.602 21.5923 171.379 19.5728 172.932 18.0194C174.485 16.466 176.388 15.6505 178.602 15.6505C181.243 15.6505 183.456 16.6991 185.165 18.9515L182.524 21.4758C181.359 20.1165 180 19.301 178.718 19.301C177.553 19.301 176.621 19.7282 175.845 20.6214C175.107 21.4758 174.718 22.602 174.718 23.9612C174.718 25.3204 175.107 26.4466 175.884 27.3398C176.66 28.233 177.631 28.6602 178.796 28.6602C179.612 28.6602 180.311 28.466 180.854 28.1165ZM199.301 18.2525C198.718 17.4758 197.942 16.8156 197.01 16.3495C196.039 15.8835 194.951 15.6505 193.709 15.6505C191.456 15.6505 189.631 16.466 188.272 18.0971C186.951 19.7282 186.252 21.7088 186.252 24.0777C186.252 26.4855 186.99 28.466 188.466 30.0194C189.903 31.534 191.883 32.3107 194.252 32.3107C196.932 32.3107 199.184 31.2233 200.816 29.0486L200.893 28.9321L198.291 26.4078C198.117 26.6408 197.876 26.8738 197.636 27.1067C197.556 27.1844 197.476 27.2621 197.398 27.3398C197.01 27.7282 196.621 28 196.233 28.1942C195.65 28.5049 194.951 28.6214 194.214 28.6214C193.087 28.6214 192.194 28.3107 191.495 27.6505C190.835 27.068 190.447 26.2525 190.369 25.2427H200.971L201.01 23.767C201.01 22.7185 200.854 21.7476 200.583 20.8156C200.311 19.9224 199.883 19.068 199.301 18.2525ZM196.738 21.9806H190.573C190.769 21.222 191.115 20.6129 191.612 20.1165C192.155 19.5728 192.854 19.301 193.709 19.301C194.68 19.301 195.417 19.5728 195.922 20.1165C196.388 20.6214 196.66 21.2427 196.738 21.9806ZM209.709 15.6893C211.806 15.6893 213.476 16.1942 214.68 17.2427C215.922 18.2913 216.544 19.8058 216.466 21.7087V31.9612H212.544V30.6408C211.262 31.6893 209.825 32.3107 208.311 32.3107C206.796 32.3107 205.515 31.8447 204.466 30.9903C203.417 30.0971 202.913 28.8544 202.913 27.3787C202.913 25.7087 203.534 24.3495 204.738 23.4175C205.942 22.4854 207.573 22.0194 209.553 22.0194C210.524 22.0194 211.495 22.1748 212.505 22.4854V21.7087C212.505 21.0097 212.272 20.4272 211.728 20C211.184 19.5728 210.524 19.3398 209.67 19.3398C208.117 19.3398 206.951 19.9223 205.903 21.5922L203.34 19.1456L203.301 19.1068C203.961 17.9418 204.971 17.0874 206.019 16.5437C207.146 16 208.388 15.6893 209.709 15.6893ZM209.476 25.3981C208.66 25.3981 208.039 25.5534 207.573 25.8641C207.146 26.1748 206.913 26.602 206.913 27.1068C206.913 27.6117 207.107 27.9612 207.456 28.2719C207.806 28.5825 208.35 28.7379 209.049 28.7379C210.485 28.7379 211.65 28.3495 212.505 27.534V25.9806C211.456 25.5922 210.447 25.3981 209.476 25.3981ZM231.922 17.5534C230.796 16.3107 229.243 15.6893 227.262 15.6893C225.67 15.6893 224.388 16.1554 223.417 17.0486V16.0777H219.495V32H223.495V23.1845C223.495 21.9806 223.767 21.0097 224.35 20.3495C224.932 19.6505 225.67 19.3398 226.718 19.3398C227.612 19.3398 228.311 19.6505 228.816 20.233C229.32 20.8544 229.592 21.6699 229.592 22.7185V31.9223H233.592V22.7185C233.592 20.5437 233.049 18.7961 231.922 17.5534ZM128.466 15.6893C130.563 15.6893 132.233 16.1942 133.437 17.2427C134.641 18.2913 135.262 19.8058 135.223 21.7087V31.9612H131.301V30.6408C130.019 31.6893 128.583 32.3107 127.068 32.3107C125.553 32.3107 124.272 31.8447 123.223 30.9903C122.175 30.0971 121.67 28.8544 121.67 27.3787C121.67 25.7087 122.291 24.3495 123.495 23.4175C124.699 22.4854 126.33 22.0194 128.311 22.0194C129.282 22.0194 130.252 22.1748 131.262 22.4854V21.7087C131.262 21.0097 131.029 20.4272 130.485 20C129.942 19.5728 129.282 19.3398 128.427 19.3398C126.874 19.3398 125.709 19.9223 124.66 21.5922L122.097 19.1456L122.058 19.1068C122.718 17.9418 123.728 17.0874 124.777 16.5437C125.903 16 127.146 15.6893 128.466 15.6893ZM128.233 25.3981C127.417 25.3981 126.796 25.5534 126.33 25.8641C125.864 26.1748 125.67 26.602 125.67 27.1068C125.67 27.6117 125.864 27.9612 126.214 28.2719C126.563 28.5825 127.107 28.7379 127.806 28.7379C129.243 28.7379 130.408 28.3495 131.262 27.534V25.9806C130.214 25.5922 129.204 25.3981 128.233 25.3981Z" fill="white"/>
</svg>
