<svg width="25" height="24" viewBox="0 0 25 24" fill="none" xmlns="http://www.w3.org/2000/svg">
<path fill-rule="evenodd" clip-rule="evenodd" d="M12.9926 0.75C6.6388 0.75 1.49255 5.89625 1.49255 12.25C1.49255 17.3387 4.78443 21.6369 9.35568 23.1606C9.93068 23.2612 10.1463 22.9162 10.1463 22.6144C10.1463 22.3412 10.1319 21.4356 10.1319 20.4725C7.24255 21.0044 6.49505 19.7681 6.26505 19.1212C6.13568 18.7906 5.57505 17.77 5.0863 17.4969C4.6838 17.2812 4.1088 16.7494 5.07193 16.735C5.97755 16.7206 6.62443 17.5687 6.84005 17.9137C7.87505 19.6531 9.52818 19.1644 10.1894 18.8625C10.2901 18.115 10.5919 17.6119 10.9226 17.3244C8.3638 17.0369 5.69005 16.045 5.69005 11.6462C5.69005 10.3956 6.13568 9.36062 6.8688 8.55562C6.7538 8.26812 6.3513 7.08937 6.9838 5.50812C6.9838 5.50812 7.94693 5.20625 10.1463 6.68687C11.0663 6.42812 12.0438 6.29875 13.0213 6.29875C13.9988 6.29875 14.9763 6.42812 15.8963 6.68687C18.0957 5.19187 19.0588 5.50812 19.0588 5.50812C19.6913 7.08937 19.2888 8.26812 19.1738 8.55562C19.9069 9.36062 20.3526 10.3812 20.3526 11.6462C20.3526 16.0594 17.6644 17.0369 15.1057 17.3244C15.5226 17.6837 15.8819 18.3737 15.8819 19.4519C15.8819 20.99 15.8676 22.2262 15.8676 22.6144C15.8676 22.9162 16.0832 23.2756 16.6582 23.1606C21.2007 21.6369 24.4926 17.3244 24.4926 12.25C24.4926 5.89625 19.3463 0.75 12.9926 0.75Z" fill="#586069"/>
</svg>
