<svg id="Layer_1" data-name="Layer 1" xmlns="http://www.w3.org/2000/svg" xmlns:xlink="http://www.w3.org/1999/xlink" viewBox="0 0 44.52 48">
  <defs>
    <style>
      .cls-1 {
        fill: #fff;
      }

      .cls-2 {
        fill: url(#linear-gradient);
      }
    </style>
    <linearGradient id="linear-gradient" x1="9.94" y1="33.27" x2="34.2" y2="32.09" gradientTransform="matrix(1, 0, 0, -1, 0, 50)" gradientUnits="userSpaceOnUse">
      <stop offset="0" stop-color="#56d364"/>
      <stop offset="1" stop-color="#79c0ff"/>
    </linearGradient>
  </defs>
  <path class="cls-1" d="M46.51,9.68a.87.87,0,0,0-.17-.52.9.9,0,0,0-.42-.35L24.63.07a1,1,0,0,0-.73,0L2.61,8.81a1,1,0,0,0-.6,1V37.62a.93.93,0,0,0,.15.52,1,1,0,0,0,.42.36l21,9.42.08,0,.06,0a1,1,0,0,0,.49,0l.06,0,.08,0L45.94,38.5a1,1,0,0,0,.42-.35,1,1,0,0,0,.16-.53V9.84A.86.86,0,0,0,46.51,9.68ZM24.26,2,43.13,9.75l-19,8.48L5.39,9.75ZM3.92,11.42,23,20V45.56L3.93,37ZM44.59,37,24.91,45.58V20.12l19.7-8.72Z" transform="translate(-2 0)"/>
  <path class="cls-2" d="M20.5,3.5,40,12l-9,4.5-20-9ZM40,12V27.5l-9,4v-15Z" transform="translate(-2 0)"/>
</svg>
