<svg width="156" height="48" viewBox="0 0 156 48" fill="none" xmlns="http://www.w3.org/2000/svg">
<path fill-rule="evenodd" clip-rule="evenodd" d="M153.745 0.808612L1.86126 0.896305L10.2522 9.28725H17.6057V10.0501V46.7604L20.4091 45.2691C20.7205 45.1027 21.0334 44.9393 21.3459 44.776L21.3461 44.7759L21.3462 44.7759L21.3463 44.7758C21.5351 44.6772 21.7237 44.5787 21.9118 44.4796L22.8005 44.0219L23.4298 43.7092L23.7883 43.5261L24.0934 43.3697L26.0005 42.4429V38.5487L27.1866 39.3116L29.5056 40.8372L30.9969 40.2193L32.5225 39.5785L34.2846 38.8806C35.2992 38.4915 36.2527 38.133 37.2863 37.7631C38.3199 37.3931 39.3306 37.046 40.2956 36.7294C41.3178 36.3938 42.3247 36.0734 43.2973 35.7836L44.8229 35.3297L46.1197 34.9712C46.5368 34.8724 46.9566 34.7631 47.3746 34.6542L47.6224 34.5897L48.3585 34.3952L49.1213 34.2045C49.621 34.0596 50.1244 33.9375 50.6241 33.8231L51.8942 33.5256H51.917L53.7974 33.1442C54.892 32.9268 55.857 32.7361 56.799 32.5683C57.4443 32.4413 58.2224 32.3174 58.8415 32.2188L59.0417 32.1869H59.1065L61.0746 31.8741L61.9518 31.7597C62.4515 31.6911 62.9511 31.63 63.4508 31.569L64.164 31.4698L64.9268 31.3859L66.4524 31.2334L68.1764 31.0694V28.5521L69.4655 29.7726L70.6441 30.8901L75.5261 30.7185L77.4789 30.6918L79.0045 29.1394L79.5919 28.5483L80.1297 29.1852L94.0014 45.5933L95.9085 45.9099L96.5225 44.0601L92.9678 35.3411L92.533 34.2732L93.6772 34.2923L96.5759 34.3342L95.8551 33.2739L94.7871 31.7483L96.6331 32.1297L97.5065 32.3089L98.7766 32.5378L99.8865 32.7399C100.874 32.9268 101.851 33.1175 102.896 33.3425C103.941 33.5676 104.952 33.7926 105.897 34.0215L107.721 34.4601H107.743L109.651 34.9788C110.669 35.261 111.68 35.5509 112.648 35.8446C114.132 36.2908 115.883 36.8782 117.092 37.2901L118.781 37.866L119.987 38.3199C120.734 38.6021 122.283 39.2086 124.346 40.0324L124.419 40.0629L126.139 40.78L128.473 39.2238L129.655 38.4343V42.3285L131.005 42.9807L131.578 43.2553L131.906 43.4231L132.241 43.5948L132.787 43.8656L133.755 44.3614C134.247 44.6322 134.751 44.8915 135.258 45.1471L138.065 46.6384L138.042 9.92801V9.1652H145.388L153.745 0.808612ZM155.579 0.0457912L155.641 0.0457688L155.625 0L155.579 0.0457912ZM0 0.10298L155.579 0.0457912L145.709 9.91657H138.82L138.843 47.9008L134.919 45.8145L133.42 45.0517L132.462 44.5597L131.913 44.2851L131.574 44.1135C131.538 44.0957 131.503 44.0774 131.468 44.0592C131.397 44.0228 131.327 43.9863 131.253 43.9533C131.117 43.8821 130.976 43.8152 130.834 43.7478L130.834 43.7477L130.833 43.7475C130.785 43.7247 130.737 43.7018 130.689 43.6787L128.908 42.8205V39.8303L126.238 41.6114L124.155 40.7456L123.944 40.6615L123.944 40.6612C123.178 40.3558 120.811 39.4112 119.739 39.0064L118.53 38.5526L116.867 37.9843C115.665 37.5723 113.922 36.9926 112.45 36.5464C111.493 36.2565 110.49 35.9704 109.471 35.6882L107.564 35.1695L105.741 34.7347C104.799 34.5058 103.765 34.277 102.762 34.0596C101.759 33.8422 100.752 33.6439 99.7721 33.4608L98.666 33.2586L97.3845 33.0298L96.5149 32.8467L98.0405 35.1352L93.6734 35.0703L97.3349 44.0486L96.4272 46.7871L93.5819 46.318L79.5461 29.662L77.8412 31.4508L75.5909 31.4775L70.3885 31.6644L68.9773 30.3256V31.8017L66.5592 32.0305L65.0679 32.1831L64.3051 32.267L63.5728 32.3547L63.4914 32.3647C63.0223 32.4224 62.5502 32.4805 62.0815 32.5454L61.2234 32.6598L59.2553 32.9726H59.1752C58.8899 33.0222 58.5839 33.0737 58.2742 33.1258L58.2739 33.1259L58.2733 33.126L58.2714 33.1263C57.8201 33.2022 57.3612 33.2794 56.9478 33.354C56.0057 33.5218 55.0293 33.7087 53.9652 33.9261L52.0849 34.3075L50.811 34.605L49.3197 34.9864L48.5568 35.1771L47.8245 35.3678C47.3249 35.4784 46.8291 35.6119 46.3294 35.7492L45.0517 36.1001L43.5261 36.554C42.5497 36.8477 41.5008 37.1833 40.5435 37.4961C39.5862 37.8088 38.5297 38.1712 37.5495 38.522C36.5692 38.8729 35.5661 39.2543 34.5707 39.6358C33.9884 39.8595 33.4137 40.0871 32.8467 40.3185C32.6789 40.3795 31.7025 40.7914 31.3211 40.9554L29.4636 41.7182L26.7938 39.9599V42.9006L24.4481 44.0448L24.1545 44.1936L23.7731 44.3804L23.1552 44.6894L22.2665 45.1471C21.7669 45.3874 21.2672 45.6467 20.7714 45.9099L16.8505 48L16.8277 10.0195H9.93945L0 0.10298ZM46.1464 8.30321H48.4348V9.06602L49.2091 8.30321H51.4975V31.3135L50.5516 32.2593L50.2579 32.328C49.7469 32.4615 49.2396 32.5874 48.7323 32.7094L48.2594 32.8276V32.2441L47.4965 33.0069L47.2105 33.0832C46.6994 33.2167 46.1921 33.3502 45.6849 33.4913L45.2043 33.621V9.2491L46.1464 8.30321ZM46.5278 32.1793C47.0389 32.0381 47.5461 31.9008 48.0534 31.7711V8.68462H46.5278V32.1793ZM51.1047 8.68843H49.579V31.3745C49.7195 31.3396 49.8603 31.3051 50.0011 31.2705L50.0018 31.2703C50.3695 31.18 50.7381 31.0896 51.1047 30.9931V8.68843ZM41.5352 9.10417V8.32228H39.2467L38.461 9.11942V8.32228H36.1726L35.4098 9.10798V8.3261H33.1213L32.328 9.12323V8.3261H30.0396L29.2768 9.11179V8.32991H26.9883L26.0462 9.2758V36.6837L26.2179 36.7943L29.5056 39.0026L29.6772 39.1132L29.8641 39.0331L30.2455 38.8768L30.3752 38.8195L31.9542 38.1559C32.2128 38.0561 32.4658 37.9527 32.7155 37.8507C33.0478 37.7149 33.3745 37.5815 33.7011 37.4617L36.7523 36.3175C37.7055 35.9578 38.7028 35.632 39.6354 35.3274L39.8036 35.2725C40.7838 34.9521 41.8479 34.6126 42.8548 34.3151L43.3964 34.1511L43.671 34.0672L44.5788 33.1366V8.30321H42.2903L41.5352 9.10417ZM36.5349 8.68462H38.0605V30.0091C38.5716 29.8336 39.0903 29.662 39.6091 29.4903V8.68462H41.1347V30.6002L40.6045 30.7719C39.5747 31.1037 38.5449 31.4508 37.5533 31.7978L36.5387 32.1526L36.5349 8.68462ZM30.3867 8.68462H31.9123V32.2784C32.3012 32.1068 32.6902 31.9609 33.0792 31.8151L33.0793 31.8151L33.0793 31.815L33.0801 31.8147C33.2095 31.7662 33.339 31.7177 33.4684 31.6682V8.68462H34.994V32.7132L34.502 32.9077C33.4951 33.2891 32.4653 33.6972 31.4508 34.113L31.0694 34.2617L30.3867 33.804V8.68462ZM42.6756 8.68462H44.2012V32.8238L43.6596 32.9878C42.6641 33.2853 41.5924 33.621 40.6083 33.9452L40.2427 34.0654C39.3633 34.3542 38.4338 34.6594 37.5571 34.994C36.5578 35.3754 35.5356 35.7568 34.5058 36.1383C33.9185 36.362 33.3311 36.5934 32.7437 36.8324L31.0312 37.5533L30.6498 37.7096L27.3201 35.5051V8.68462H28.8458V34.6851L30.8138 35.9895L32.1754 35.4174L32.1762 35.4171C32.7671 35.1807 33.3581 34.9444 33.9528 34.7156C34.4196 34.5446 34.8764 34.3736 35.3333 34.2026C35.8954 33.9922 36.4576 33.7818 37.0384 33.5714C38.0911 33.19 39.1323 32.8353 40.1354 32.5073C40.9936 32.225 41.8441 31.9542 42.6756 31.7025V8.68462ZM118.011 22.2093H115.497L115.517 28.3118C116.977 28.7542 119.712 29.662 119.712 29.662V32.0801L119.117 32.6636L119.285 32.7247L119.453 32.7819L119.712 32.8696V35.2877L118.77 36.245L118.267 36.0696L117.603 35.8446C116.382 35.4288 114.613 34.8377 113.11 34.3838C112.126 34.0901 111.1 33.7964 110.059 33.5104L109.498 33.354L109.22 33.2777V9.2491L110.146 8.30321H119.682V10.5917L118.896 11.3545H119.682V13.6429L118.755 14.5773H115.505V15.9313H118.964V18.2198L118.179 18.9826H118.964V21.271L118.011 22.2093ZM119.312 13.2615V11.7359H113.598V17.8384H118.575V16.3127H115.116V13.2615H119.312ZM119.327 33.1671L119.136 33.0946C117.9 32.6751 116.108 32.0763 114.578 31.611C113.758 31.363 112.912 31.1151 112.053 30.8787V10.2102H119.3V8.68462H110.528L110.566 32.061L111.127 32.2174C112.164 32.4996 113.19 32.7971 114.178 33.0946C115.703 33.5409 117.443 34.1321 118.663 34.5516L119.327 34.7766V33.1671ZM119.308 29.9671L119.186 29.9251C118.278 29.62 116.623 29.0746 115.124 28.6169V20.9163H118.583V19.3907H113.598V29.7459L114.144 29.9099C115.749 30.3828 117.691 31.0236 118.701 31.363L119.308 31.569V29.9671ZM120.402 12.1707V19.6348L122.981 22.2169H124.289V31.3287L122.287 30.5659L121.222 30.1845L120.28 31.1228V33.5638L120.86 33.7773L120.28 34.3418V36.7866L120.528 36.882C121.581 37.2751 123.82 38.1688 124.758 38.5437L124.972 38.6288H125.006L125.769 38.953L125.959 39.0293L129.617 36.5921L130.578 35.6615V18.4982L128 15.9313H126.688V14.5697H129.632L130.578 13.6429V11.3545H129.793L130.578 10.5917V8.30321H124.304L120.402 12.1707ZM130.197 13.2615H126.322V16.3127H127.847L130.197 18.6813V35.5051L126.879 37.7135L126.093 37.3855C126.086 37.3855 125.696 37.2299 125.135 37.0065L125.132 37.0054L125.132 37.0052L125.132 37.0052C124.088 36.5892 122.457 35.9393 121.611 35.6195V33.9909L122.119 34.1816C122.898 34.4741 124.365 35.0594 125.424 35.4818L125.424 35.4818C126.133 35.7645 126.659 35.9742 126.673 35.9742H126.711L128.671 34.6698V19.3106L127.214 17.8384H125.284L124.789 17.3425V12.4987L125.551 11.7359H130.197V13.2615ZM130.197 8.68462V10.2102H125.105L123.263 12.0448V17.9299L124.724 19.3907H126.574L127.146 19.9628V33.6934L126.36 34.216L126.097 34.1092C124.88 33.6133 123.004 32.8849 121.631 32.3776H121.608V30.749L122.161 30.9549C123.19 31.3363 124.51 31.8398 125.62 32.2822V20.9163H124.094L121.737 18.5478V11.4002L124.476 8.68462H130.197ZM105.569 8.30322V9.06604L106.332 8.2689H108.621V31.9161L107.702 32.8772L107.229 32.7628L106.287 32.5378C105.625 32.3808 104.931 32.2273 104.236 32.0738C103.901 31.9997 103.567 31.9257 103.235 31.8513C102.302 31.6415 101.362 31.4638 100.437 31.2888L100.184 31.241L99.0055 31.0274L98.7309 30.9778L98.5974 30.955L96.1792 28.0677V9.24911L97.1251 8.30322H99.4136V9.08892L100.176 8.30322H102.465V9.06604L103.281 8.30322H105.569ZM102.095 8.68463H100.569L100.573 26.0653L101.199 26.8281L101.389 26.8632L101.389 26.8632L101.39 26.8633L101.39 26.8634C102.379 27.0454 103.343 27.2227 104.25 27.4269L105.169 27.6176V8.68463H103.643V25.7335C103.14 25.6305 102.621 25.5314 102.095 25.4322V8.68463ZM108.232 31.4584V8.68463H106.729V29.5209C106.035 29.3607 105.314 29.2005 104.585 29.0441C103.605 28.8174 102.608 28.6327 101.62 28.4498L101.492 28.4262C101.244 28.3766 100.84 28.3042 100.573 28.2584L99.0474 26.4315V8.68463H97.5218V26.9921L99.7568 29.662L100.031 29.7116C100.031 29.7116 100.829 29.8527 101.21 29.929L101.354 29.956C102.326 30.1378 103.306 30.3212 104.261 30.5392C104.609 30.6187 104.966 30.6981 105.323 30.7779L105.323 30.7779L105.323 30.778C105.996 30.9279 106.673 31.079 107.312 31.2334L108.232 31.4584ZM80.6141 8.30321H71.9943L68.1802 12.1173V26.4505L68.3023 26.5649L71.2162 29.3301H71.3764L75.4956 29.1852H76.8267L80.6141 25.3483V8.30321ZM80.2327 25.1919L77.5971 27.8617H76.4186L72.2994 28.0029L69.4999 25.333V11.3545L72.1697 8.68462H80.2327V25.1919ZM74.1034 13.2615H75.6558V23.2887C75.4423 23.2933 75.23 23.3017 75.0193 23.3101L75.0192 23.3101L75.019 23.3101L75.0189 23.3101L75.0187 23.3101L75.0186 23.3101L75.0185 23.3101L75.0183 23.3101L75.0182 23.3101C74.7097 23.3223 74.4046 23.3344 74.1034 23.3344V13.2615ZM71.0293 24.7037L72.8791 26.462H73.2987L76.9602 26.359L78.7147 24.5931V10.2103H72.7952L71.0293 11.9762V24.7037ZM72.5549 12.4987L73.3177 11.7359H77.1814V24.0362L76.4186 24.7991C75.4733 24.7991 74.5406 24.8396 73.6485 24.8784L73.3673 24.8906L72.5702 24.1278L72.5549 12.4987ZM64.5035 8.30321V9.06602L65.2815 8.30321H67.57V28.7352L66.6279 29.6772L66.2808 29.7116C65.7735 29.7611 65.2663 29.8107 64.7552 29.8679L64.3318 29.9099V29.2195L63.569 30.0052L63.2334 30.0472C62.7261 30.1082 62.2188 30.1692 61.7077 30.2379L61.2768 30.2951V9.25291L62.215 8.30321H64.5035ZM62.5964 28.8992L64.122 28.7046V8.68462H62.5964V28.8992ZM67.2114 8.68462H65.6858V28.5406C66.1703 28.486 66.6582 28.4383 67.143 28.3909L67.1433 28.3909L67.2114 28.3843V8.68462ZM87.8608 26.6756L91.8388 27.0074L93.6543 25.3788L93.6849 5.16426L91.8236 3.30681H85.9156L84.0734 5.149V24.677L87.6701 28.4491L85.7096 28.4186L89.6839 33.1328L88.3413 29.8374L90.3399 29.868L87.8608 26.6756ZM86.6441 25.0279L85.6486 23.7349V5.61051L86.4114 4.84769H91.3964L92.1592 5.61051V24.6465L91.3201 25.4093C89.7678 25.2529 88.1926 25.1271 86.6441 25.0279ZM94.2722 31.8284L93.3263 32.7743L91.5909 32.7476L96 43.549L95.0579 44.4949L80.6141 27.3735L81.4036 26.5917L81.2091 26.3819V5.30156L85.1108 1.39977H92.6131L95.5728 4.35567V26.2293L94.6307 27.179L92.2889 29.2806L94.2722 31.8284ZM82.3838 26.8396L94.7261 41.4856L90.6489 31.3974L93.5056 31.4432L91.2172 28.4873L91.8312 28.5368L92.3804 28.5979L95.2105 26.0615V4.51586L92.4758 1.78117H85.2787L82.544 4.51586V25.2873L82.666 25.4169L84.0048 26.8205L84.0505 26.8663L82.3838 26.8396ZM87.1742 23.5595C88.3185 23.6358 89.4627 23.7311 90.6336 23.8417V6.3962H87.1742V23.5595ZM87.5137 7.70061H89.2644V23.3001C88.677 23.2506 88.0934 23.2048 87.5137 23.1666V7.70061ZM56.1125 8.30321H58.4009L58.4124 24.5359L60.7008 24.1773V26.4925L59.7778 27.4117L60.7008 27.2667V29.5819L59.7854 30.5201L59.4651 30.5735L58.8739 30.6651H58.8319L58.4665 30.7242C57.8312 30.8269 57.1433 30.938 56.5435 31.0465C55.5633 31.2219 54.5678 31.4126 53.4922 31.6338L52.5769 31.8207L52.1192 31.9123V9.2491L53.0613 8.30321H55.3497V9.08891L56.1125 8.30321ZM60.308 29.2424V27.7168L59.4803 27.8465C58.7251 27.9571 57.8479 28.0944 57.108 28.2279C56.4024 28.3537 55.6968 28.4872 54.934 28.636V8.68462H53.4083V30.4896L54.3237 30.3027C54.7682 30.2195 55.1985 30.135 55.619 30.0523L55.6198 30.0522L55.6201 30.0521C56.2204 29.9342 56.801 29.8201 57.375 29.7192C58.1073 29.5895 58.9731 29.4522 59.7168 29.3378L60.308 29.2424ZM60.308 24.6045L59.5452 24.7189L58.0043 24.9745V8.68462H56.4787V26.7518L57.375 26.5955C58.1301 26.4696 59.0265 26.3285 59.7893 26.2141L60.308 26.1301V24.6045ZM151.041 1.3578L94.7566 1.39213L93.8145 2.3342L96.103 4.62264H96.9497L96.164 5.38545V7.67389L131.162 7.65482L131.181 41.3826L131.395 41.4856L131.665 41.6152L132.249 41.8975L132.607 42.0806L132.916 42.2369L133.469 42.5116L134.232 41.7487V42.9387L134.438 43.0455C134.945 43.3011 135.456 43.5642 135.964 43.8389L136.524 44.1363L137.47 43.1905L137.444 7.66626H144.728L151.041 1.3578ZM134.011 40.9897L133.34 40.6503C133.139 40.5498 132.936 40.4531 132.732 40.3562C132.65 40.317 132.568 40.2779 132.485 40.2384V6.36567H97.5027V4.84004H134.011V40.9897ZM97.2205 3.30679L95.6949 1.78116H150.133L148.607 3.30679H97.2205ZM137.104 6.35804V42.565C136.597 42.2942 136.09 42.031 135.579 41.7678V4.83241H147.097L145.571 6.35804H137.104ZM80.6141 4.46625V6.75469L79.672 7.70821L25.4169 7.74254V40.5244L24.4748 41.4703L24.2574 41.5733L23.9905 41.703L23.4069 41.989C23.2849 42.0462 23.1666 42.1073 23.0446 42.1721L22.7356 42.3285L22.1864 42.6031V42.2217L21.4236 42.9845L19.1352 44.1859L19.1123 7.72728H10.8968L8.60834 5.43884L9.37115 4.67603H7.81501L5.52657 2.38759L6.46865 1.43789L82.9483 1.415L79.897 4.46625H80.6141ZM20.451 42.5802C20.9583 42.3094 21.4655 42.0462 21.9766 41.7831V4.84766H10.4734L11.999 6.37329H20.451V42.5802ZM7.42216 1.79641L8.94779 3.32203H80.5378L82.0634 1.79641H7.42216ZM25.0431 40.246V6.37329H80.2327V4.84766H23.5175V40.9974L24.1888 40.6579C24.3898 40.5574 24.5928 40.4608 24.7963 40.3638C24.8785 40.3247 24.9608 40.2855 25.0431 40.246Z" fill="white"/>
</svg>
