<svg width="24" height="20" viewBox="0 0 24 20" fill="none" xmlns="http://www.w3.org/2000/svg">
<path d="M16.0336 0.261162V0.256836H17.1583L17.5692 0.339022C17.8432 0.392378 18.0919 0.462301 18.3154 0.548813C18.5389 0.635325 18.7552 0.736263 18.9642 0.851605C19.1733 0.966946 19.3629 1.08447 19.5331 1.20414C19.7018 1.32238 19.8532 1.44782 19.9872 1.58047C20.1199 1.71456 20.3268 1.74916 20.608 1.68428C20.8891 1.6194 21.1919 1.52927 21.5163 1.41393C21.8407 1.29859 22.1616 1.16882 22.4788 1.02463C22.796 0.880435 22.9892 0.788884 23.0584 0.749953C23.1262 0.709595 23.1622 0.687968 23.1666 0.685069L23.1709 0.678581L23.1925 0.667767L23.2141 0.656953L23.2357 0.646139L23.2574 0.635325L23.2617 0.628837L23.2682 0.624511L23.2747 0.620185L23.279 0.613697L23.3006 0.607209L23.3223 0.602883L23.318 0.635325L23.3114 0.667767L23.3006 0.700209L23.2898 0.732651L23.279 0.754279L23.2682 0.775907L23.2574 0.808349C23.2502 0.829977 23.243 0.858807 23.2357 0.894861C23.2285 0.930914 23.16 1.07509 23.0303 1.32742C22.9005 1.57975 22.7383 1.83568 22.5437 2.09521C22.349 2.35475 22.1745 2.55083 22.0203 2.68349C21.8646 2.81759 21.7615 2.9113 21.711 2.96466C21.6605 3.01944 21.5992 3.0699 21.5271 3.11605L21.419 3.18742L21.3974 3.19824L21.3757 3.20905L21.3714 3.21554L21.3649 3.21987L21.3584 3.22419L21.3541 3.23068L21.3325 3.24149L21.3109 3.25231L21.3066 3.2588L21.3 3.26312L21.2936 3.26745L21.2892 3.27394L21.2849 3.28042L21.2784 3.28475L21.2719 3.28907L21.2676 3.29556H21.3757L21.9813 3.1658C22.3851 3.07928 22.7707 2.97476 23.1384 2.85219L23.7224 2.65754L23.7873 2.63591L23.8197 2.6251L23.8413 2.61428L23.863 2.60347L23.8846 2.59265L23.9062 2.58184L23.9495 2.57535L23.9927 2.57103V2.61428L23.9819 2.61861L23.9711 2.6251L23.9668 2.63159L23.9603 2.63591L23.9538 2.64024L23.9495 2.64672L23.9452 2.65321L23.9387 2.65754L23.9322 2.66186L23.9278 2.66835L23.9235 2.67484L23.917 2.67917L23.9062 2.70079L23.8954 2.72242L23.8889 2.72675C23.886 2.73107 23.7945 2.85362 23.6142 3.09442C23.434 3.33666 23.3367 3.4592 23.3223 3.4621C23.3079 3.46642 23.2877 3.48805 23.2617 3.52698C23.2372 3.56734 23.0844 3.72812 22.8032 4.00929C22.522 4.29045 22.2467 4.5406 21.977 4.75978C21.706 4.98038 21.569 5.25144 21.5661 5.57299C21.5618 5.89308 21.5452 6.255 21.5163 6.65871C21.4875 7.06244 21.4334 7.49859 21.3541 7.9672C21.2748 8.43581 21.1523 8.9657 20.9864 9.55686C20.8206 10.148 20.6188 10.7248 20.3809 11.2871C20.1429 11.8494 19.8942 12.3541 19.6347 12.801C19.3752 13.248 19.1372 13.6265 18.921 13.9365C18.7047 14.2465 18.4848 14.5385 18.2613 14.8124C18.0378 15.0864 17.7552 15.395 17.4135 15.7381C17.0704 16.0798 16.8829 16.2673 16.8512 16.3004C16.818 16.3322 16.6767 16.4504 16.4273 16.6551C16.1793 16.8613 15.9125 17.0675 15.627 17.2737C15.343 17.4785 15.082 17.6493 14.8441 17.7863C14.6062 17.9233 14.3193 18.0797 13.9833 18.2556C13.6488 18.433 13.2869 18.5973 12.8976 18.7487C12.5083 18.9001 12.0974 19.0407 11.6648 19.1705C11.2322 19.3002 10.8141 19.4012 10.4104 19.4733C10.0067 19.5454 9.54886 19.6066 9.03699 19.6571L8.2692 19.7328V19.7436H6.86339V19.7328L6.67955 19.722C6.557 19.7148 6.45607 19.7076 6.37676 19.7004C6.29747 19.6932 5.99827 19.6535 5.4792 19.5814C4.96013 19.5093 4.55281 19.4372 4.25722 19.3651C3.96165 19.293 3.52187 19.1561 2.93791 18.9542C2.35396 18.7523 1.85435 18.5483 1.43909 18.3421C1.02529 18.1374 0.765752 18.0076 0.660488 17.9528C0.556674 17.8995 0.439883 17.8332 0.310116 17.7538L0.115464 17.6349L0.11116 17.6284L0.10465 17.6241L0.0981616 17.6198L0.093836 17.6133L0.0722081 17.6025L0.0505801 17.5916L0.0462762 17.5852L0.0397661 17.5808L0.0332778 17.5765L0.0289522 17.57L0.0246482 17.5635L0.0181382 17.5592H0.00732422V17.5159L0.0289522 17.5203L0.0505801 17.5268L0.147906 17.5376C0.21279 17.5448 0.389425 17.5556 0.677791 17.57C0.966178 17.5844 1.27256 17.5844 1.59698 17.57C1.9214 17.5556 2.25304 17.5231 2.59186 17.4727C2.93071 17.4222 3.33083 17.3357 3.79222 17.2132C4.25363 17.0906 4.67753 16.945 5.06396 16.7763C5.44894 16.6061 5.72288 16.4792 5.88582 16.3956C6.0473 16.3134 6.29386 16.1606 6.62548 15.9371L7.12292 15.6019L7.12725 15.5954L7.13373 15.5911L7.14024 15.5867L7.14455 15.5802L7.14887 15.5738L7.15536 15.5694L7.16187 15.5651L7.16618 15.5586L7.1878 15.5521L7.20943 15.5478L7.21376 15.5262L7.22025 15.5045L7.22676 15.5002L7.23106 15.4937L7.05804 15.4829C6.9427 15.4757 6.83094 15.4685 6.7228 15.4613C6.61466 15.4541 6.44525 15.4216 6.21455 15.364C5.98386 15.3063 5.73514 15.2198 5.46838 15.1044C5.20164 14.9891 4.94211 14.8521 4.68978 14.6935C4.43746 14.5349 4.25505 14.4029 4.14259 14.2977C4.03157 14.1939 3.88738 14.0468 3.71003 13.8565C3.53413 13.6647 3.38128 13.4679 3.25152 13.266C3.12175 13.0642 2.99776 12.8313 2.87954 12.5675L2.7 12.1738L2.68919 12.1414L2.67838 12.109L2.67189 12.0873L2.66756 12.0657L2.7 12.07L2.73245 12.0765L2.97035 12.109C3.12897 12.1306 3.37769 12.1378 3.71652 12.1306C4.05536 12.1234 4.28966 12.109 4.41943 12.0873C4.54919 12.0657 4.6285 12.0513 4.65733 12.0441L4.70059 12.0333L4.75466 12.0224L4.80873 12.0116L4.81306 12.0051L4.81954 12.0008L4.82605 11.9965L4.83036 11.99L4.7871 11.9792L4.74385 11.9684L4.70059 11.9576L4.65733 11.9467L4.61408 11.9359C4.58525 11.9287 4.53479 11.9143 4.46268 11.8927C4.3906 11.871 4.19595 11.7917 3.87873 11.6548C3.56153 11.5178 3.3092 11.3844 3.12175 11.2546C2.93384 11.1245 2.75466 10.9822 2.58538 10.8286C2.41668 10.6729 2.23141 10.4724 2.02954 10.2273C1.82768 9.98221 1.64746 9.69744 1.48884 9.37302C1.33024 9.0486 1.21129 8.7386 1.13198 8.44302C1.05299 8.14917 1.00087 7.84874 0.976278 7.54546L0.937326 7.09127L0.958954 7.09559L0.980582 7.10208L1.00221 7.1129L1.02384 7.12371L1.04547 7.13452L1.06709 7.14534L1.40233 7.29673C1.62583 7.39767 1.90338 7.48418 2.235 7.55627C2.56665 7.62836 2.76489 7.66802 2.82977 7.67522L2.9271 7.68604H3.12175L3.11745 7.67955L3.11094 7.67522L3.10445 7.6709L3.10012 7.66441L3.09582 7.65792L3.08931 7.6536L3.08282 7.64927L3.07849 7.64278L3.05687 7.63197L3.03524 7.62115L3.03093 7.61467L3.02442 7.61034L3.01794 7.60601L3.01361 7.59953L2.99198 7.58871L2.97035 7.5779L2.96605 7.57141C2.96172 7.56851 2.89972 7.52238 2.78003 7.43299C2.66179 7.34215 2.53779 7.22465 2.40803 7.08045C2.27826 6.93626 2.14849 6.78487 2.01872 6.62627C1.88872 6.46731 1.77292 6.29723 1.67268 6.11801C1.57176 5.93779 1.46505 5.70851 1.35258 5.43024C1.24157 5.1534 1.15722 4.8744 1.09954 4.59324C1.04188 4.31208 1.00943 4.03453 1.00221 3.76056C0.995008 3.4866 1.00221 3.25231 1.02384 3.05766C1.04547 2.863 1.08872 2.64311 1.15361 2.398C1.21849 2.15289 1.31223 1.89336 1.43477 1.6194L1.61861 1.20847L1.62942 1.17602L1.64023 1.14358L1.64674 1.13926L1.65105 1.13277L1.65537 1.12628L1.66186 1.12195L1.66837 1.12628L1.67268 1.13277L1.677 1.13926L1.68349 1.14358L1.69 1.14791L1.6943 1.1544L1.69863 1.16088L1.70512 1.16521L1.71593 1.18684L1.72675 1.20847L1.73326 1.21279L1.73756 1.21928L2.02954 1.5437C2.22419 1.75998 2.45489 2.0015 2.72163 2.26824C2.98839 2.53497 3.13618 2.67339 3.16501 2.68349C3.19386 2.69502 3.22989 2.72818 3.27315 2.78298C3.3164 2.83634 3.46059 2.96394 3.7057 3.1658C3.95084 3.36765 4.27164 3.60197 4.66815 3.8687C5.06467 4.13544 5.50444 4.39859 5.98745 4.65812C6.47049 4.91766 6.98956 5.15196 7.54467 5.36103C8.09979 5.57011 8.48909 5.70708 8.71257 5.77196C8.93608 5.83685 9.31816 5.91975 9.85886 6.02069C10.3996 6.12162 10.8069 6.18651 11.0808 6.21534C11.3548 6.24417 11.5422 6.26076 11.6432 6.26508L11.7946 6.26941L11.7903 6.23696L11.7837 6.20452L11.7405 5.93417C11.7117 5.75395 11.6972 5.50161 11.6972 5.1772C11.6972 4.85278 11.7225 4.5536 11.7729 4.27963C11.8234 4.00567 11.8991 3.72812 12 3.44696C12.101 3.1658 12.1997 2.94013 12.2963 2.77C12.3944 2.60131 12.5227 2.40882 12.6813 2.19254C12.8399 1.97626 13.0454 1.75278 13.2977 1.52207C13.55 1.29137 13.8384 1.0859 14.1628 0.905674C14.4872 0.725449 14.7864 0.588457 15.0604 0.494743C15.3343 0.401029 15.565 0.339736 15.7525 0.310906C15.9399 0.282076 16.0336 0.265487 16.0336 0.261162Z" fill="#586069"/>
</svg>
